0
SECTION
2
HEADER
9
$INSUNITS
70
4
9
$ACADVER
1
AC1014
9
$HANDSEED
5
FFFF
0
ENDSEC
0
SECTION
2
TABLES
0
TABLE
2
VPORT
5
8
100
AcDbSymbolTable
0
ENDTAB
0
TABLE
2
LTYPE
5
5
100
AcDbSymbolTable
0
LTYPE
5
14
100
AcDbSymbolTableRecord
100
AcDbLinetypeTableRecord
2
BYBLOCK
70
0
0
LTYPE
5
15
100
AcDbSymbolTableRecord
100
AcDbLinetypeTableRecord
2
BYLAYER
70
0
0
ENDTAB
0
TABLE
2
LAYER
5
2
100
AcDbSymbolTable
70
2
0
LAYER
5
50
100
AcDbSymbolTableRecord
100
AcDbLayerTableRecord
2
0
70
0
6
CONTINUOUS
0
ENDTAB
0
TABLE
2
STYLE
5
3
100
AcDbSymbolTable
70
1
0
STYLE
5
11
100
AcDbSymbolTableRecord
100
AcDbTextStyleTableRecord
2
STANDARD
70
0
0
ENDTAB
0
TABLE
2
VIEW
5
6
100
AcDbSymbolTable
70
0
0
ENDTAB
0
TABLE
2
UCS
5
7
100
AcDbSymbolTable
70
0
0
ENDTAB
0
TABLE
2
APPID
5
9
100
AcDbSymbolTable
70
2
0
APPID
5
12
100
AcDbSymbolTableRecord
100
AcDbRegAppTableRecord
2
ACAD
70
0
0
ENDTAB
0
TABLE
2
DIMSTYLE
5
A
100
AcDbSymbolTable
70
1
0
ENDTAB
0
TABLE
2
BLOCK_RECORD
5
1
100
AcDbSymbolTable
70
1
0
BLOCK_RECORD
5
1F
100
AcDbSymbolTableRecord
100
AcDbBlockTableRecord
2
*MODEL_SPACE
0
BLOCK_RECORD
5
1B
100
AcDbSymbolTableRecord
100
AcDbBlockTableRecord
2
*PAPER_SPACE
0
ENDTAB
0
ENDSEC
0
SECTION
2
BLOCKS
0
BLOCK
5
20
100
AcDbEntity
100
AcDbBlockBegin
2
*MODEL_SPACE
0
ENDBLK
5
21
100
AcDbEntity
100
AcDbBlockEnd
0
BLOCK
5
1C
100
AcDbEntity
100
AcDbBlockBegin
2
*PAPER_SPACE
0
ENDBLK
5
1D
100
AcDbEntity
100
AcDbBlockEnd
0
ENDSEC
0
SECTION
2
ENTITIES
0
LWPOLYLINE
5
100
100
AcDbEntity
8
OUTER_PROFILES
100
AcDbPolyline
90
43
70
1
43
0.0
10
-5.7722372650619977
20
5.1670000000000016
10
-10.523893421169124
20
5.1670000000000016
42
-0.41421356237309509
10
-15.523893421169053
20
10.167000000000002
10
-15.523893421169124
20
338.16700000000014
42
-0.41421356237309509
10
-10.523893421169124
20
343.16700000000014
10
-5.7652857686042775
20
343.16700000000014
42
1.0391902662227614
10
-4.766024200668018
20
343.16700000000014
10
-3.0000000000000298
20
343.16699999999997
42
0.4142135623731043
10
-2.0000000000000107
20
344.16699999999997
10
-2.0000000000000089
20
346.334
42
-0.41421356237309509
10
-8.8817841970012523e-15
20
348.33399999999995
10
62.757064809086401
20
348.33399999999995
42
1.0289213390929737
10
63.75665850785861
20
348.33399999999995
10
376.49889342116927
20
348.33399999999995
10
378.2511451328852
20
348.33399999999995
42
0.96422358373287087
10
379.2504818515601
20
348.33399999999995
10
381.02278684233858
20
348.33399999999995
10
442.02278684233863
20
348.33400000000006
42
-0.41421356237309509
10
444.02278684233863
20
346.334
10
444.02278684233858
20
344.16700000000003
42
0.41421356237309509
10
445.02278684233858
20
343.16700000000003
10
446.78593104431798
20
343.16700000000003
42
1.019576249163066
10
447.78574314394132
20
343.16700000000003
10
452.54668026350794
20
343.16699999999997
42
-0.41421356237309509
10
457.54668026350794
20
338.16699999999997
10
457.54668026350794
20
10.167000000000019
42
-0.41421356237309603
10
452.54668026350794
20
5.1670000000000016
10
447.77581186194226
20
5.1670000000000025
42
1.076060675431584
10
446.778492805783
20
5.1670000000000016
10
445.02278684233858
20
5.1669999999999874
42
0.41421356237309509
10
444.02278684233863
20
4.1669999999999874
10
444.02278684233863
20
2.0000000000000324
42
-0.41421356237309565
10
442.02278684233863
20
1.4210854715202004e-13
10
381.02278684233858
20
0
10
379.24781786163038
20
3.3480163086352377e-15
42
1.1228722255135537
10
378.25449572039713
20
3.5214886562329184e-15
10
63.75795321613537
20
2.2801855889542644e-14
42
0.99728051232452974
10
62.757956924011793
20
-3.2227909577131619e-16
10
2.7755575615628914e-16
20
2.8310687127941492e-14
42
-0.41421356237309503
10
-2
20
2.0000000000000275
10
-1.9999999999999978
20
4.1670000000000575
42
0.41421356237309515
10
-2.9999999999999982
20
5.1670000000000016
10
-4.7726006958169336
20
5.1670000000000025
42
1.0273312833615855
0
CIRCLE
5
101
100
AcDbEntity
8
INTERIOR_PROFILES
100
AcDbCircle
10
-13.228943072688892
20
333.86324530729837
30
0
40
1.2644999999999995
210
0
220
0
230
-1
0
CIRCLE
5
102
100
AcDbEntity
8
INTERIOR_PROFILES
100
AcDbCircle
10
-13.573363080667642
20
313.78152706892928
30
0
40
1.2644999999999995
210
0
220
0
230
-1
0
CIRCLE
5
103
100
AcDbEntity
8
INTERIOR_PROFILES
100
AcDbCircle
10
-33.573363080667768
20
313.78152706892928
30
0
40
1.2645000000000017
210
0
220
0
230
-1
0
CIRCLE
5
104
100
AcDbEntity
8
INTERIOR_PROFILES
100
AcDbCircle
10
-25.549751664984814
20
181.29339200494857
30
0
40
1.2645000000000017
210
0
220
0
230
-1
0
CIRCLE
5
105
100
AcDbEntity
8
INTERIOR_PROFILES
100
AcDbCircle
10
-352.03129777888455
20
221.43997974257584
30
0
40
1.7000000000000171
210
0
220
0
230
-1
0
CIRCLE
5
106
100
AcDbEntity
8
INTERIOR_PROFILES
100
AcDbCircle
10
-352.03129777888455
20
306.43997974257582
30
0
40
1.7000000000000171
210
0
220
0
230
-1
0
CIRCLE
5
107
100
AcDbEntity
8
INTERIOR_PROFILES
100
AcDbCircle
10
-86.031297778884536
20
221.43997974257672
30
0
40
1.7000000000000171
210
0
220
0
230
-1
0
CIRCLE
5
108
100
AcDbEntity
8
INTERIOR_PROFILES
100
AcDbCircle
10
-86.031297778884536
20
306.43997974257672
30
0
40
1.7000000000000171
210
0
220
0
230
-1
0
CIRCLE
5
109
100
AcDbEntity
8
INTERIOR_PROFILES
100
AcDbCircle
10
-308.63171582538212
20
195.43984182442256
30
0
40
1.7000000000000171
210
-0
220
0
230
-1
0
CIRCLE
5
110
100
AcDbEntity
8
INTERIOR_PROFILES
100
AcDbCircle
10
-256.63171582538212
20
195.43984182442273
30
0
40
1.7000000000000171
210
-0
220
0
230
-1
0
CIRCLE
5
111
100
AcDbEntity
8
INTERIOR_PROFILES
100
AcDbCircle
10
-340.49969956166353
20
20.456401223314842
30
0
40
1.6999999999999993
210
-0
220
0
230
-1
0
CIRCLE
5
112
100
AcDbEntity
8
INTERIOR_PROFILES
100
AcDbCircle
10
-260.49908553425166
20
20.456401223315268
30
0
40
1.6999999999999993
210
-0
220
0
230
-1
0
CIRCLE
5
113
100
AcDbEntity
8
INTERIOR_PROFILES
100
AcDbCircle
10
-356.49889342116927
20
5
30
0
40
1.7000000000000004
210
0
220
0
230
-1
0
CIRCLE
5
114
100
AcDbEntity
8
INTERIOR_PROFILES
100
AcDbCircle
10
-220.52389342116939
20
5
30
0
40
1.7000000000000004
210
0
220
0
230
-1
0
CIRCLE
5
115
100
AcDbEntity
8
INTERIOR_PROFILES
100
AcDbCircle
10
-356.49889342116927
20
343.33399999999995
30
0
40
1.7000000000000171
210
0
220
0
230
-1
0
CIRCLE
5
116
100
AcDbEntity
8
INTERIOR_PROFILES
100
AcDbCircle
10
-85.523893421169376
20
5
30
0
40
1.7000000000000004
210
0
220
0
230
-1
0
CIRCLE
5
117
100
AcDbEntity
8
INTERIOR_PROFILES
100
AcDbCircle
10
-85.523893421169305
20
343.33399999999995
30
0
40
1.7000000000000171
210
0
220
0
230
-1
0
CIRCLE
5
118
100
AcDbEntity
8
INTERIOR_PROFILES
100
AcDbCircle
10
12.79388703632252
20
22.000000000001378
30
0
40
1.2645000000000017
210
-0
220
0
230
-1
0
CIRCLE
5
119
100
AcDbEntity
8
INTERIOR_PROFILES
100
AcDbCircle
10
12.793887036322165
20
174.16700000000259
30
0
40
1.264499999999984
210
-0
220
0
230
-1
0
LWPOLYLINE
5
120
100
AcDbEntity
8
INTERIOR_PROFILES
100
AcDbPolyline
90
8
70
1
43
0.0
10
38.499999850990314
20
328.03105838634826
10
38.499999850990314
20
339.78105865456916
42
0.41421356237309509
10
35.999999850990314
20
342.28105865456916
10
18.499999195339385
20
342.28105865456916
42
0.41421356237309603
10
15.999999195339374
20
339.78105865456916
10
15.999999195339374
20
328.03105838634826
42
0.41421356237309603
10
18.499999195339385
20
325.53105838634826
10
35.999999850990307
20
325.53105838634826
42
0.41421356237309603
0
LWPOLYLINE
5
121
100
AcDbEntity
8
INTERIOR_PROFILES
100
AcDbPolyline
90
8
70
1
43
0.0
10
2.499999068679486
20
304.03105790206052
42
-0.41421356237309603
10
4.9999990686794948
20
306.53105790206052
10
43.999999068679486
20
306.53105790206052
42
-0.41421356237309509
10
46.499999068679486
20
304.03105790206052
10
46.499999068679486
20
299.03105790206052
42
-0.41421356237309709
10
43.999999068679472
20
296.53105790206052
10
4.9999990686794948
20
296.53105790206052
42
-0.41421356237309603
10
2.4999990686794864
20
299.03105790206052
0
CIRCLE
5
122
100
AcDbEntity
8
INTERIOR_PROFILES
100
AcDbCircle
10
-220.52389342116939
20
343.33399999999995
30
0
40
1.7000000000000171
210
0
220
0
230
-1
0
CIRCLE
5
123
100
AcDbEntity
8
INTERIOR_PROFILES
100
AcDbCircle
10
-75.791715825382141
20
173.82984182442334
30
0
40
1.7000000000000171
210
-0
220
0
230
-1
0
CIRCLE
5
124
100
AcDbEntity
8
INTERIOR_PROFILES
100
AcDbCircle
10
-98.651715825382155
20
16.349841824423237
30
0
40
1.6999999999999993
210
-0
220
0
230
-1
0
CIRCLE
5
125
100
AcDbEntity
8
INTERIOR_PROFILES
100
AcDbCircle
10
-230.73171582538214
20
16.349841824422739
30
0
40
1.6999999999999993
210
-0
220
0
230
-1
0
CIRCLE
5
126
100
AcDbEntity
8
INTERIOR_PROFILES
100
AcDbCircle
10
-230.73171582538214
20
173.82984182442283
30
0
40
1.7000000000000171
210
-0
220
0
230
-1
0
CIRCLE
5
127
100
AcDbEntity
8
INTERIOR_PROFILES
100
AcDbCircle
10
-121.45035987775044
20
264.14823034777595
30
0
40
47.5
210
0
220
0
230
-1
0
CIRCLE
5
128
100
AcDbEntity
8
INTERIOR_PROFILES
100
AcDbCircle
10
-219.28798144223094
20
264.52693112126406
30
0
40
44.000000000000021
210
0
220
0
230
-1
0
CIRCLE
5
129
100
AcDbEntity
8
INTERIOR_PROFILES
100
AcDbCircle
10
-316.45035987775043
20
264.14823034777595
30
0
40
47.5
210
0
220
0
230
-1
0
CIRCLE
5
130
100
AcDbEntity
8
INTERIOR_PROFILES
100
AcDbCircle
10
-454.54668026350794
20
22.000000000000313
30
0
40
1.2645000000000017
210
-0
220
0
230
-1
0
CIRCLE
5
131
100
AcDbEntity
8
INTERIOR_PROFILES
100
AcDbCircle
10
-454.54668026350822
20
174.16700000000162
30
0
40
1.264499999999984
210
-0
220
0
230
-1
0
CIRCLE
5
132
100
AcDbEntity
8
INTERIOR_PROFILES
100
AcDbCircle
10
-454.54668026350862
20
326.33364142953445
30
0
40
1.264499999999984
210
-0
220
0
230
-1
0
CIRCLE
5
133
100
AcDbEntity
8
INTERIOR_PROFILES
100
AcDbCircle
10
-41.228943072687521
20
333.86324530729837
30
0
40
1.2645000000000017
210
0
220
0
230
-1
0
CIRCLE
5
134
100
AcDbEntity
8
INTERIOR_PROFILES
100
AcDbCircle
10
12.79388703632188
20
326.33364142953553
30
0
40
1.264499999999984
210
-0
220
0
230
-1
0
LWPOLYLINE
5
135
100
AcDbEntity
8
INTERIOR_PROFILES
100
AcDbPolyline
90
8
70
1
43
0.0
10
13.227037331558913
20
7.5342687583341217
10
56.707760181508974
20
7.5342687583341217
42
0.41421356237309509
10
57.207760181508988
20
8.0342687583340933
10
57.207760181508974
20
165.83479313954712
42
0.41421356237309509
10
56.707760181508974
20
166.33479313954712
10
13.227037331558904
20
166.33479313954712
42
0.41421356237308982
10
12.727037331558915
20
165.83479313954712
10
12.727037331558913
20
8.0342687583340933
42
0.41421356237309509
0
CIRCLE
5
136
100
AcDbEntity
8
INTERIOR_PROFILES
100
AcDbCircle
10
-411.02278684233858
20
20.000000000000071
30
0
40
1.7000000000000171
210
0
220
0
230
-1
0
CIRCLE
5
137
100
AcDbEntity
8
INTERIOR_PROFILES
100
AcDbCircle
10
-411.02278684233858
20
328.33399999999995
30
0
40
1.7000000000000171
210
0
220
0
230
-1
0
CIRCLE
5
138
100
AcDbEntity
8
INTERIOR_PROFILES
100
AcDbCircle
10
-414.02278682551184
20
174.16681920033514
30
0
40
13.249999999999993
210
0
220
0
230
-1
0
LWPOLYLINE
5
139
100
AcDbEntity
8
INTERIOR_PROFILES
100
AcDbPolyline
90
8
70
1
43
0.0
10
23.050210423850466
20
190.53105622567995
10
23.050210423850466
20
285.53105622567989
42
0.41421356237309509
10
20.550210423850466
20
288.03105622567995
10
11.550210423850453
20
288.03105622567995
42
0.41421356237309404
10
9.0502104238504621
20
285.53105622567995
10
9.0502104238504621
20
190.53105622567995
42
0.41421356237309509
10
11.550210423850462
20
188.03105622567995
10
20.550210423850459
20
188.03105622567995
42
0.41421356237309603
0
LWPOLYLINE
5
140
100
AcDbEntity
8
INTERIOR_PROFILES
100
AcDbPolyline
90
8
70
1
43
0.0
10
43.550210423850459
20
190.53105622567995
10
43.550210423850459
20
285.53105622567989
42
0.41421356237309509
10
41.050210423850459
20
288.03105622567995
10
32.050210423850444
20
288.03105622567995
42
0.41421356237309404
10
29.550210423850455
20
285.53105622567995
10
29.550210423850455
20
190.53105622567995
42
0.41421356237309509
10
32.050210423850459
20
188.03105622567995
10
41.050210423850437
20
188.03105622567995
42
0.41421356237309709
0
LINE
5
141
100
AcDbEntity
8
BEND
100
AcDbLine
10
378.76084013175398
20
1.4210854715202004e-13
30
7.8813535170903129e-12
11
378.76084013175398
21
348.33399999999995
31
7.8743512530679779e-12
0
LINE
5
142
100
AcDbEntity
8
BEND
100
AcDbLine
10
-5.2619467105845885
20
343.16700000000014
30
-3.7790528390679049e-14
11
-5.2619467105845885
21
5.1670000000000016
31
-1.7838683833368507e-14
0
LINE
5
143
100
AcDbEntity
8
BEND
100
AcDbLine
10
447.28473355292323
20
5.1670000000000016
30
9.7917295358623274e-12
11
447.28473355292323
21
343.16699999999997
31
9.7893238913122868e-12
0
LINE
5
144
100
AcDbEntity
8
BEND
100
AcDbLine
10
63.261946710584681
20
0
30
2.9948525643915497e-15
11
63.261946710584681
21
348.33399999999995
31
2.9948525643915497e-15
0
LINE
5
145
100
AcDbEntity
8
BEND_EXTENT
100
AcDbLine
10
381.02278684233858
20
348.33399999999995
30
7.9389275740506287e-12
11
381.02278684233858
21
0
31
7.9389275740506287e-12
0
LINE
5
146
100
AcDbEntity
8
BEND_EXTENT
100
AcDbLine
10
445.02278684233858
20
5.1670000000000016
30
9.7377781973005125e-12
11
445.02278684233858
21
343.16700000000003
31
9.7377781973005125e-12
0
LINE
5
147
100
AcDbEntity
8
BEND_EXTENT
100
AcDbLine
10
60.99999999999995
20
348.33399999999995
30
-4.3369881330812826e-14
11
60.99999999999995
21
0
31
-4.3369881330812845e-14
0
LINE
5
148
100
AcDbEntity
8
BEND_EXTENT
100
AcDbLine
10
65.523893421169376
20
0
30
6.9343600902847639e-14
11
65.523893421169376
21
348.33399999999995
31
6.9343600902847639e-14
0
LINE
5
149
100
AcDbEntity
8
BEND_EXTENT
100
AcDbLine
10
376.49889342116927
20
0
30
7.8173323076199699e-12
11
376.49889342116927
21
348.33399999999995
31
7.8173323076199699e-12
0
LINE
5
150
100
AcDbEntity
8
BEND_EXTENT
100
AcDbLine
10
449.54668026350794
20
343.16699999999997
30
9.8682552479281726e-12
11
449.54668026350794
21
5.1670000000000016
31
9.8682552479281726e-12
0
LINE
5
151
100
AcDbEntity
8
BEND_EXTENT
100
AcDbLine
10
-7.5238934211691522
20
5.1670000000000016
30
-3.6468600262078772e-14
11
-7.5238934211691522
21
343.16700000000014
31
3.4585673313931246e-14
0
LINE
5
152
100
AcDbEntity
8
BEND_EXTENT
100
AcDbLine
10
-3.0000000000000071
20
343.16699999999997
30
-3.691175801436362e-15
11
-2.9999999999999982
21
5.1670000000000016
31
-3.6911758014361096e-15
0
ENDSEC
0
SECTION
2
OBJECTS
0
DICTIONARY
5
C
100
AcDbDictionary
3
ACAD_GROUP
350
D
3
ACAD_MLINESTYLE
350
17
0
DICTIONARY
5
D
100
AcDbDictionary
0
DICTIONARY
5
1A
330
C
100
AcDbDictionary
0
DICTIONARY
5
17
100
AcDbDictionary
0
ENDSEC
0
EOF
