0
SECTION
2
HEADER
9
$INSUNITS
70
4
9
$ACADVER
1
AC1014
9
$HANDSEED
5
FFFF
0
ENDSEC
0
SECTION
2
TABLES
0
TABLE
2
VPORT
5
8
100
AcDbSymbolTable
0
ENDTAB
0
TABLE
2
LTYPE
5
5
100
AcDbSymbolTable
0
LTYPE
5
14
100
AcDbSymbolTableRecord
100
AcDbLinetypeTableRecord
2
BYBLOCK
70
0
0
LTYPE
5
15
100
AcDbSymbolTableRecord
100
AcDbLinetypeTableRecord
2
BYLAYER
70
0
0
ENDTAB
0
TABLE
2
LAYER
5
2
100
AcDbSymbolTable
70
2
0
LAYER
5
50
100
AcDbSymbolTableRecord
100
AcDbLayerTableRecord
2
0
70
0
6
CONTINUOUS
0
ENDTAB
0
TABLE
2
STYLE
5
3
100
AcDbSymbolTable
70
1
0
STYLE
5
11
100
AcDbSymbolTableRecord
100
AcDbTextStyleTableRecord
2
STANDARD
70
0
0
ENDTAB
0
TABLE
2
VIEW
5
6
100
AcDbSymbolTable
70
0
0
ENDTAB
0
TABLE
2
UCS
5
7
100
AcDbSymbolTable
70
0
0
ENDTAB
0
TABLE
2
APPID
5
9
100
AcDbSymbolTable
70
2
0
APPID
5
12
100
AcDbSymbolTableRecord
100
AcDbRegAppTableRecord
2
ACAD
70
0
0
ENDTAB
0
TABLE
2
DIMSTYLE
5
A
100
AcDbSymbolTable
70
1
0
ENDTAB
0
TABLE
2
BLOCK_RECORD
5
1
100
AcDbSymbolTable
70
1
0
BLOCK_RECORD
5
1F
100
AcDbSymbolTableRecord
100
AcDbBlockTableRecord
2
*MODEL_SPACE
0
BLOCK_RECORD
5
1B
100
AcDbSymbolTableRecord
100
AcDbBlockTableRecord
2
*PAPER_SPACE
0
ENDTAB
0
ENDSEC
0
SECTION
2
BLOCKS
0
BLOCK
5
20
100
AcDbEntity
100
AcDbBlockBegin
2
*MODEL_SPACE
0
ENDBLK
5
21
100
AcDbEntity
100
AcDbBlockEnd
0
BLOCK
5
1C
100
AcDbEntity
100
AcDbBlockBegin
2
*PAPER_SPACE
0
ENDBLK
5
1D
100
AcDbEntity
100
AcDbBlockEnd
0
ENDSEC
0
SECTION
2
ENTITIES
0
LWPOLYLINE
5
100
100
AcDbEntity
8
OUTER_PROFILES
100
AcDbPolyline
90
56
70
1
43
0.0
10
-59.999999999999972
20
314.70500638484731
42
0.4142135623730977
10
-62.999999999999964
20
311.70500638484725
10
-62.999999999999957
20
308.85250319242346
42
-0.41421356237308726
10
-63.999999999999943
20
307.85250319242346
10
-65.763470803378979
20
307.85250319242346
42
-0.97963173950244065
10
-66.763259102292039
20
307.85250319242346
10
-68.523893421169134
20
307.85250319242346
10
-71.52389342116912
20
307.85250319242346
42
0.41421356237309404
10
-76.523893421169106
20
302.85250319242346
10
-76.523893421169106
20
7.8525031924235833
42
0.41421356237309892
10
-71.523893421169078
20
2.8525031924235349
10
-66.76619614332769
20
2.8525031924235922
42
-1.0207730432212603
10
-65.766407467547637
20
2.8525031924235922
10
-63.99999999999995
20
2.8525031924234945
42
-0.4142135623730952
10
-62.999999999999957
20
1.8525031924234976
10
-62.999999999999964
20
-1.2700000000001619
42
0.41421356237309548
10
-59.999999999999957
20
-4.2700000000001577
10
-3.000000000000016
20
-4.2700000000001754
42
0.41421356237309565
10
-1.5543122344752192e-14
20
-1.2700000000001692
10
0
20
0
10
1.7604155969349256
20
1.7629127324614302e-14
42
-1.0590783550906604
10
2.7587705296346599
20
1.7772242011382389e-14
10
350.6163554767881
20
1.7837294141731519e-14
42
-1.0613168170501073
10
351.61458734109056
20
1.8058471384918562e-14
10
353.38142827187022
20
-5.3290705182007514e-14
10
353.38142827187022
20
-1.2700000000000777
42
0.41421356237309453
10
356.38142827187016
20
-4.2700000000000742
10
413.38142827187016
20
-4.2700000000000626
42
0.41421356237309731
10
416.38142827187011
20
-1.270000000000068
10
416.38142827187016
20
-0.34749680757640627
42
-0.41421356237309509
10
417.38142827187016
20
0.65250319242359378
10
419.13563128234102
20
0.65250319242373955
42
-0.97400012714220907
10
420.13528438357349
20
0.65250319242374011
10
424.90532169303941
20
0.65250319242376786
42
0.41421356237309681
10
429.90532169303941
20
5.6525031924238078
10
429.90532169303941
20
304.90550319242357
42
0.41421356237309087
10
424.90532169303953
20
309.90550319242362
10
421.90532169303941
20
309.90550319242362
10
420.13517959220934
20
309.90550319242362
42
-1.0330460147771885
10
419.13570786596551
20
309.90550319242362
10
417.38142827187016
20
309.90550319242362
42
-0.41421356237310542
10
416.38142827187016
20
310.90550319242368
10
416.38142827187028
20
311.7050063848472
42
0.41421356237309509
10
413.38142827187022
20
314.70500638484725
10
356.38142827187011
20
314.7050063848472
42
0.41421356237309165
10
353.38142827187022
20
311.7050063848472
10
353.38142827187022
20
310.70500638484725
10
351.62762694798147
20
310.7050063848472
42
-1.0151765638486665
10
350.62774037749335
20
310.7050063848472
10
348.85753485070086
20
310.70500638484725
10
4.5238934211692339
20
310.70500638484725
10
2.7617927415062269
20
310.70500638484725
42
-1.0170988179450666
10
1.7619364480736386
20
310.70500638484725
10
4.4408920985006262e-15
20
310.70500638484725
10
8.8817841970012523e-15
20
311.70500638484725
42
0.41421356237309809
10
-2.9999999999999893
20
314.70500638484731
0
ARC
5
101
100
AcDbEntity
8
INTERIOR_PROFILES
100
AcDbCircle
10
-397.04441985476694
20
282.85806019972023
30
0
40
3.9999999999999956
210
0
220
0
230
-1
100
AcDbArc
50
123.75000000000675
51
303.74999999999523
0
LINE
5
102
100
AcDbEntity
8
INTERIOR_PROFILES
100
AcDbLine
10
394.82213892268879
20
279.53218175050984
30
0
11
372.37245939052013
21
294.53257804203963
31
0
0
ARC
5
103
100
AcDbEntity
8
INTERIOR_PROFILES
100
AcDbCircle
10
-374.59474032259897
20
297.85845649124951
30
0
40
3.9999999999999956
210
-0
220
0
230
-1
100
AcDbArc
50
-56.249999999992582
51
123.74999999999523
0
LINE
5
104
100
AcDbEntity
8
INTERIOR_PROFILES
100
AcDbLine
10
376.81702125467712
20
301.18433494045991
30
0
11
399.26670078684572
21
286.18393864893011
31
0
0
LWPOLYLINE
5
105
100
AcDbEntity
8
INTERIOR_PROFILES
100
AcDbPolyline
90
4
70
1
43
0.0
10
372.37245939051991
20
151.84027034973167
10
394.82213892268788
20
136.8398740582023
42
0.99999999999999989
10
399.26670078684595
20
143.49163095662274
10
376.81702125467791
20
158.49202724815203
42
0.99999999999999989
0
LINE
5
106
100
AcDbEntity
8
INTERIOR_PROFILES
100
AcDbLine
10
376.81702125467694
20
280.79971955584426
30
0
11
399.26670078684595
21
265.79932326431509
31
0
0
ARC
5
107
100
AcDbEntity
8
INTERIOR_PROFILES
100
AcDbCircle
10
-397.04441985476694
20
262.47344481510481
30
0
40
4.0000000000004095
210
0
220
0
230
-1
100
AcDbArc
50
123.7500000000063
51
303.74999999999562
0
LINE
5
108
100
AcDbEntity
8
INTERIOR_PROFILES
100
AcDbLine
10
394.82213892268879
20
259.14756636589448
30
0
11
372.37245939051996
21
274.14796265742393
31
0
0
ARC
5
109
100
AcDbEntity
8
INTERIOR_PROFILES
100
AcDbCircle
10
-374.59474032259897
20
277.47384110663415
30
0
40
4.0000000000003499
210
-0
220
0
230
-1
100
AcDbArc
50
-56.249999999993243
51
123.74999999999547
0
ARC
5
110
100
AcDbEntity
8
INTERIOR_PROFILES
100
AcDbCircle
10
-397.04441985476694
20
201.31959866125865
30
0
40
3.9999999999999956
210
0
220
0
230
-1
100
AcDbArc
50
123.75000000000652
51
303.74999999999636
0
LINE
5
111
100
AcDbEntity
8
INTERIOR_PROFILES
100
AcDbLine
10
394.82213892268874
20
197.99372021204832
30
0
11
372.37245939052008
21
212.99411650357808
31
0
0
ARC
5
112
100
AcDbEntity
8
INTERIOR_PROFILES
100
AcDbCircle
10
-374.59474032259891
20
216.31999495278797
30
0
40
3.9999999999999956
210
-0
220
0
230
-1
100
AcDbArc
50
-56.249999999992582
51
123.7499999999943
0
LINE
5
113
100
AcDbEntity
8
INTERIOR_PROFILES
100
AcDbLine
10
376.817021254677
20
219.64587340199839
30
0
11
399.26670078684572
21
204.64547711046856
31
0
0
CIRCLE
5
114
100
AcDbEntity
8
INTERIOR_PROFILES
100
AcDbCircle
10
-424.90496312257397
20
290.70500638484782
30
0
40
1.264499999999984
210
0
220
0
230
-1
0
CIRCLE
5
115
100
AcDbEntity
8
INTERIOR_PROFILES
100
AcDbCircle
10
-424.90496312257443
20
154.73000638484791
30
0
40
1.264499999999984
210
0
220
0
230
-1
0
CIRCLE
5
116
100
AcDbEntity
8
INTERIOR_PROFILES
100
AcDbCircle
10
-424.90496312257483
20
19.730006384847798
30
0
40
1.264499999999984
210
0
220
0
230
-1
0
LINE
5
117
100
AcDbEntity
8
INTERIOR_PROFILES
100
AcDbLine
10
376.81702125467694
20
178.87664263276733
30
0
11
399.26670078684589
21
163.8762463412381
31
0
0
ARC
5
118
100
AcDbEntity
8
INTERIOR_PROFILES
100
AcDbCircle
10
-397.04441985476694
20
160.55036789202788
30
0
40
4.0000000000003402
210
0
220
0
230
-1
100
AcDbArc
50
123.75000000000607
51
303.74999999999545
0
LINE
5
119
100
AcDbEntity
8
INTERIOR_PROFILES
100
AcDbLine
10
394.82213892268879
20
157.22448944281751
30
0
11
372.37245939052013
21
172.22488573434731
31
0
0
ARC
5
120
100
AcDbEntity
8
INTERIOR_PROFILES
100
AcDbCircle
10
-374.59474032259897
20
175.55076418355722
30
0
40
3.9999999999999956
210
-0
220
0
230
-1
100
AcDbArc
50
-56.249999999992788
51
123.74999999999547
0
ARC
5
121
100
AcDbEntity
8
INTERIOR_PROFILES
100
AcDbCircle
10
-397.04441985476683
20
119.78113712279715
30
0
40
3.9999999999999809
210
0
220
0
230
-1
100
AcDbArc
50
123.75000000000742
51
303.74999999999488
0
LINE
5
122
100
AcDbEntity
8
INTERIOR_PROFILES
100
AcDbLine
10
394.82213892268874
20
116.4552586735868
30
0
11
372.37245939052013
21
131.45565496511654
31
0
0
ARC
5
123
100
AcDbEntity
8
INTERIOR_PROFILES
100
AcDbCircle
10
-374.59474032259891
20
134.78153341432647
30
0
40
3.9999999999999853
210
-0
220
0
230
-1
100
AcDbArc
50
-56.249999999993705
51
123.74999999999635
0
LINE
5
124
100
AcDbEntity
8
INTERIOR_PROFILES
100
AcDbLine
10
376.81702125467712
20
138.10741186353681
30
0
11
399.26670078684566
21
123.10701557200703
31
0
0
ARC
5
125
100
AcDbEntity
8
INTERIOR_PROFILES
100
AcDbCircle
10
-397.044419854767
20
180.93498327664327
30
0
40
3.9999999999999853
210
0
220
0
230
-1
100
AcDbArc
50
123.75000000000561
51
303.74999999999682
0
LINE
5
126
100
AcDbEntity
8
INTERIOR_PROFILES
100
AcDbLine
10
394.82213892268879
20
177.60910482743299
30
0
11
372.37245939052013
21
192.60950111896264
31
0
0
ARC
5
127
100
AcDbEntity
8
INTERIOR_PROFILES
100
AcDbCircle
10
-374.59474032259891
20
195.93537956817258
30
0
40
3.9999999999999853
210
-0
220
0
230
-1
100
AcDbArc
50
-56.249999999993705
51
123.74999999999477
0
LINE
5
128
100
AcDbEntity
8
INTERIOR_PROFILES
100
AcDbLine
10
376.817021254677
20
199.26125801738294
30
0
11
399.26670078684572
21
184.2608617258532
31
0
0
LWPOLYLINE
5
129
100
AcDbEntity
8
INTERIOR_PROFILES
100
AcDbPolyline
90
4
70
1
43
0.0
10
376.81702125467774
20
240.03048878661332
42
0.99999999999999989
10
372.37245939052025
20
233.37873188819344
10
394.82213892268817
20
218.3783355966641
42
0.99999999999999989
10
399.26670078684566
20
225.03009249508398
0
LINE
5
130
100
AcDbEntity
8
INTERIOR_PROFILES
100
AcDbLine
10
376.81702125467694
20
260.41510417122885
30
0
11
399.26670078684595
21
245.41470787969971
31
0
0
ARC
5
131
100
AcDbEntity
8
INTERIOR_PROFILES
100
AcDbCircle
10
-397.044419854767
20
242.08882943048945
30
0
40
4.0000000000003695
210
0
220
0
230
-1
100
AcDbArc
50
123.75000000000583
51
303.74999999999636
0
LINE
5
132
100
AcDbEntity
8
INTERIOR_PROFILES
100
AcDbLine
10
394.82213892268879
20
238.76295098127912
30
0
11
372.37245939052008
21
253.76334727280886
31
0
0
ARC
5
133
100
AcDbEntity
8
INTERIOR_PROFILES
100
AcDbCircle
10
-374.59474032259891
20
257.08922572201874
30
0
40
3.9999999999999956
210
-0
220
0
230
-1
100
AcDbArc
50
-56.249999999992582
51
123.74999999999612
0
LINE
5
134
100
AcDbEntity
8
INTERIOR_PROFILES
100
AcDbLine
10
-18.991031118648628
20
49.917193426654684
30
0
11
-41.440710650817643
21
34.916797135125513
31
0
0
ARC
5
135
100
AcDbEntity
8
INTERIOR_PROFILES
100
AcDbCircle
10
43.662991582895629
20
38.242675584335586
30
0
40
3.9999999999996754
210
0
220
-0
230
-1
100
AcDbArc
50
-123.74999999999581
51
56.249999999993314
0
LINE
5
136
100
AcDbEntity
8
INTERIOR_PROFILES
100
AcDbLine
10
-45.885272514974417
20
41.568554033545496
30
0
11
-23.43559298280578
21
56.568950325075221
31
0
0
ARC
5
137
100
AcDbEntity
8
INTERIOR_PROFILES
100
AcDbCircle
10
21.213312050727634
20
53.243071875864871
30
0
40
3.9999999999999996
210
0
220
0
230
-1
100
AcDbArc
50
56.250000000004476
51
236.24999999999292
0
LWPOLYLINE
5
138
100
AcDbEntity
8
INTERIOR_PROFILES
100
AcDbPolyline
90
8
70
1
43
0.0
10
39.523893421169937
20
24.999999999999197
42
-0.41421356237309526
10
29.523893421169912
20
34.999999999999183
10
29.523893421169308
20
280.70500638484646
42
-0.41421356237309648
10
39.523893421169376
20
290.70500638484646
10
313.85753485070103
20
290.70500638484691
42
-0.41421356237309193
10
323.85753485070097
20
280.70500638484702
10
323.85753485070154
20
34.999999999999893
42
-0.41421356237309803
10
313.85753485070148
20
24.99999999999979
0
LWPOLYLINE
5
139
100
AcDbEntity
8
INTERIOR_PROFILES
100
AcDbPolyline
90
4
70
1
43
0.0
10
-23.435592982805616
20
76.95356570969038
10
-45.885272514973785
20
61.953169418161316
42
0.99999999999999989
10
-41.440710650817465
20
55.301412519740659
10
-18.991031118649651
20
70.301808811270149
42
0.99999999999999989
0
LWPOLYLINE
5
140
100
AcDbEntity
8
INTERIOR_PROFILES
100
AcDbPolyline
90
4
70
1
43
0.0
10
-41.440710650817664
20
96.070643288971652
10
-18.991031118649513
20
111.07103958050064
42
0.99999999999999989
10
-23.435592982805787
20
117.72279647892137
10
-45.885272514973622
20
102.72240018739177
42
0.99999999999999989
0
LWPOLYLINE
5
141
100
AcDbEntity
8
INTERIOR_PROFILES
100
AcDbPolyline
90
4
70
1
43
0.0
10
-45.885272514973778
20
82.337784802776653
42
0.99999999999999989
10
-41.440710650817472
20
75.686027904355996
10
-18.991031118649651
20
90.686424195885436
42
0.99999999999999989
10
-23.435592982805616
20
97.338181094305781
0
ARC
5
142
100
AcDbEntity
8
INTERIOR_PROFILES
100
AcDbCircle
10
43.662991582895678
20
201.31959866125868
30
0
40
3.9999999999999747
210
0
220
-0
230
-1
100
AcDbArc
50
-123.74999999999561
51
56.249999999993314
0
LINE
5
143
100
AcDbEntity
8
INTERIOR_PROFILES
100
AcDbLine
10
-45.885272514974467
20
204.64547711046859
30
0
11
-23.435592982805677
21
219.64587340199807
31
0
0
ARC
5
144
100
AcDbEntity
8
INTERIOR_PROFILES
100
AcDbCircle
10
21.213312050727687
20
216.31999495278797
30
0
40
3.9999999999996838
210
0
220
0
230
-1
100
AcDbArc
50
56.25000000000442
51
236.24999999999281
0
LINE
5
145
100
AcDbEntity
8
INTERIOR_PROFILES
100
AcDbLine
10
-18.991031118648877
20
212.99411650357808
30
0
11
-41.440710650817536
21
197.99372021204834
31
0
0
CIRCLE
5
146
100
AcDbEntity
8
INTERIOR_PROFILES
100
AcDbCircle
10
-176.69089342116928
20
305.70500638484725
30
0
40
1.7000000000000171
210
0
220
0
230
-1
0
CIRCLE
5
147
100
AcDbEntity
8
INTERIOR_PROFILES
100
AcDbCircle
10
-328.85753485070092
20
5.0000000000000355
30
0
40
1.7000000000000171
210
0
220
0
230
-1
0
ARC
5
148
100
AcDbEntity
8
INTERIOR_PROFILES
100
AcDbCircle
10
-397.04441985476694
20
99.396521738181747
30
0
40
3.9999999999999707
210
0
220
0
230
-1
100
AcDbArc
50
123.75000000000574
51
303.74999999999659
0
LINE
5
149
100
AcDbEntity
8
INTERIOR_PROFILES
100
AcDbLine
10
394.82213892268874
20
96.070643288971439
30
0
11
372.37245939051996
21
111.07103958050087
31
0
0
ARC
5
150
100
AcDbEntity
8
INTERIOR_PROFILES
100
AcDbCircle
10
-374.59474032259891
20
114.39691802971109
30
0
40
4.0000000000003402
210
-0
220
0
230
-1
100
AcDbArc
50
-56.249999999993953
51
123.74999999999648
0
LINE
5
151
100
AcDbEntity
8
INTERIOR_PROFILES
100
AcDbLine
10
376.81702125467712
20
117.72279647892141
30
0
11
399.26670078684566
21
102.72240018739167
31
0
0
LWPOLYLINE
5
152
100
AcDbEntity
8
INTERIOR_PROFILES
100
AcDbPolyline
90
4
70
1
43
0.0
10
399.26670078684589
20
61.953169418161245
10
376.81702125467791
20
76.953565709690565
42
0.99999999999999989
10
372.37245939051991
20
70.301808811270107
10
394.82213892268783
20
55.301412519740786
42
0.99999999999999989
0
ARC
5
153
100
AcDbEntity
8
INTERIOR_PROFILES
100
AcDbCircle
10
21.213312050727694
20
236.70461033740335
30
0
40
3.9999999999999991
210
0
220
0
230
-1
100
AcDbArc
50
56.250000000004725
51
236.24999999999289
0
LINE
5
154
100
AcDbEntity
8
INTERIOR_PROFILES
100
AcDbLine
10
-18.99103111864887
20
233.37873188819344
30
0
11
-41.440710650817692
21
218.37833559666396
31
0
0
ARC
5
155
100
AcDbEntity
8
INTERIOR_PROFILES
100
AcDbCircle
10
43.662991582895678
20
221.70421404587404
30
0
40
3.9999999999996794
210
0
220
-0
230
-1
100
AcDbArc
50
-123.74999999999577
51
56.249999999993406
0
LINE
5
156
100
AcDbEntity
8
INTERIOR_PROFILES
100
AcDbLine
10
-45.88527251497446
20
225.03009249508395
30
0
11
-23.435592982805829
21
240.03048878661372
31
0
0
LWPOLYLINE
5
157
100
AcDbEntity
8
INTERIOR_PROFILES
100
AcDbPolyline
90
4
70
1
43
0.0
10
372.37245939051991
20
90.686424195885536
10
394.82213892268788
20
75.686027904356138
42
0.99999999999999989
10
399.26670078684595
20
82.337784802776568
10
376.81702125467791
20
97.338181094305838
42
0.99999999999999989
0
CIRCLE
5
158
100
AcDbEntity
8
INTERIOR_PROFILES
100
AcDbCircle
10
71.523893421168779
20
154.73000638484717
30
0
40
1.2645000000000017
210
0
220
0
230
-1
0
CIRCLE
5
159
100
AcDbEntity
8
INTERIOR_PROFILES
100
AcDbCircle
10
71.523893421169277
20
290.70500638484708
30
0
40
1.2645000000000017
210
0
220
0
230
-1
0
CIRCLE
5
160
100
AcDbEntity
8
INTERIOR_PROFILES
100
AcDbCircle
10
8.0479287346770789
20
37.605634603181258
30
0
40
1.2645000000000017
210
0
220
0
230
-1
0
CIRCLE
5
161
100
AcDbEntity
8
INTERIOR_PROFILES
100
AcDbCircle
10
58.04792873467651
20
37.605634603181258
30
0
40
1.2645000000000017
210
-0
220
0
230
-1
0
CIRCLE
5
162
100
AcDbEntity
8
INTERIOR_PROFILES
100
AcDbCircle
10
58.047928734676475
20
277.60563460318065
30
0
40
1.264499999999984
210
0
220
0
230
-1
0
CIRCLE
5
163
100
AcDbEntity
8
INTERIOR_PROFILES
100
AcDbCircle
10
8.0479287346771322
20
277.60563460318065
30
0
40
1.264499999999984
210
0
220
0
230
-1
0
ARC
5
164
100
AcDbEntity
8
INTERIOR_PROFILES
100
AcDbCircle
10
43.6629915828957
20
282.85806019972023
30
0
40
3.9999999999999747
210
0
220
-0
230
-1
100
AcDbArc
50
-123.74999999999572
51
56.249999999993086
0
LINE
5
165
100
AcDbEntity
8
INTERIOR_PROFILES
100
AcDbLine
10
-45.885272514974488
20
286.18393864893011
30
0
11
-23.435592982805865
21
301.18433494045985
31
0
0
ARC
5
166
100
AcDbEntity
8
INTERIOR_PROFILES
100
AcDbCircle
10
21.213312050727723
20
297.85845649124946
30
0
40
4.0000000000000044
210
0
220
0
230
-1
100
AcDbArc
50
56.25000000000486
51
236.24999999999267
0
LINE
5
167
100
AcDbEntity
8
INTERIOR_PROFILES
100
AcDbLine
10
-18.991031118648902
20
294.53257804203957
30
0
11
-41.44071065081755
21
279.53218175050989
31
0
0
LWPOLYLINE
5
168
100
AcDbEntity
8
INTERIOR_PROFILES
100
AcDbPolyline
90
4
70
1
43
0.0
10
399.26670078684589
20
41.568554033545844
10
376.81702125467768
20
56.568950325074852
42
0.99999999999999989
10
372.37245939052002
20
49.917193426655032
10
394.82213892268794
20
34.916797135125393
42
0.99999999999999989
0
ARC
5
169
100
AcDbEntity
8
INTERIOR_PROFILES
100
AcDbCircle
10
-397.04441985476694
20
17.858060199720217
30
0
40
3.9999999999999778
210
0
220
0
230
-1
100
AcDbArc
50
123.75000000000568
51
303.74999999999659
0
LINE
5
170
100
AcDbEntity
8
INTERIOR_PROFILES
100
AcDbLine
10
394.82213892268874
20
14.53218175050991
30
0
11
372.37245939051991
21
29.532578042039347
31
0
0
ARC
5
171
100
AcDbEntity
8
INTERIOR_PROFILES
100
AcDbCircle
10
-374.59474032259885
20
32.858456491249541
30
0
40
4.0000000000003144
210
-0
220
0
230
-1
100
AcDbArc
50
-56.249999999993705
51
123.74999999999568
0
LINE
5
172
100
AcDbEntity
8
INTERIOR_PROFILES
100
AcDbLine
10
376.817021254677
20
36.184334940459877
30
0
11
399.26670078684566
21
21.183938648930148
31
0
0
CIRCLE
5
173
100
AcDbEntity
8
INTERIOR_PROFILES
100
AcDbCircle
10
71.52389342116841
20
19.730006384847115
30
0
40
1.2645000000000017
210
0
220
0
230
-1
0
CIRCLE
5
174
100
AcDbEntity
8
INTERIOR_PROFILES
100
AcDbCircle
10
-24.523893421169269
20
5.0000000000000178
30
0
40
1.6999999999999993
210
0
220
0
230
-1
0
CIRCLE
5
175
100
AcDbEntity
8
INTERIOR_PROFILES
100
AcDbCircle
10
-24.523893421169255
20
305.70500638484725
30
0
40
1.6999999999999993
210
0
220
0
230
-1
0
CIRCLE
5
176
100
AcDbEntity
8
INTERIOR_PROFILES
100
AcDbCircle
10
-328.85753485070092
20
305.70500638484725
30
0
40
1.7000000000000171
210
0
220
0
230
-1
0
LINE
5
177
100
AcDbEntity
8
INTERIOR_PROFILES
100
AcDbLine
10
-45.885272514974602
20
21.183938648930404
30
0
11
-23.435592982805598
21
36.184334940459607
31
0
0
ARC
5
178
100
AcDbEntity
8
INTERIOR_PROFILES
100
AcDbCircle
10
21.213312050727616
20
32.858456491249463
30
0
40
3.9999999999997349
210
0
220
0
230
-1
100
AcDbArc
50
56.250000000004775
51
236.24999999999281
0
LINE
5
179
100
AcDbEntity
8
INTERIOR_PROFILES
100
AcDbLine
10
-18.991031118648792
20
29.53257804203956
30
0
11
-41.440710650817451
21
14.532181750509865
31
0
0
ARC
5
180
100
AcDbEntity
8
INTERIOR_PROFILES
100
AcDbCircle
10
43.662991582895607
20
17.858060199720189
30
0
40
3.9999999999999809
210
0
220
-0
230
-1
100
AcDbArc
50
-123.74999999999586
51
56.249999999993285
0
LINE
5
181
100
AcDbEntity
8
INTERIOR_PROFILES
100
AcDbLine
10
-18.991031118648664
20
131.4556549651162
30
0
11
-41.440710650817664
21
116.45525867358702
31
0
0
ARC
5
182
100
AcDbEntity
8
INTERIOR_PROFILES
100
AcDbCircle
10
43.662991582895643
20
119.78113712279711
30
0
40
3.9999999999996794
210
0
220
-0
230
-1
100
AcDbArc
50
-123.74999999999572
51
56.249999999993406
0
LINE
5
183
100
AcDbEntity
8
INTERIOR_PROFILES
100
AcDbLine
10
-45.885272514974424
20
123.10701557200701
30
0
11
-23.435592982805797
21
138.10741186353678
31
0
0
ARC
5
184
100
AcDbEntity
8
INTERIOR_PROFILES
100
AcDbCircle
10
21.213312050727669
20
134.78153341432642
30
0
40
3.9999999999999969
210
0
220
0
230
-1
100
AcDbArc
50
56.25000000000481
51
236.24999999999318
0
ARC
5
185
100
AcDbEntity
8
INTERIOR_PROFILES
100
AcDbCircle
10
21.213312050727669
20
175.55076418355719
30
0
40
4.0000000000000044
210
0
220
0
230
-1
100
AcDbArc
50
56.250000000004412
51
236.24999999999301
0
LINE
5
186
100
AcDbEntity
8
INTERIOR_PROFILES
100
AcDbLine
10
-18.991031118648852
20
172.22488573434728
30
0
11
-41.440710650817508
21
157.22448944281751
31
0
0
ARC
5
187
100
AcDbEntity
8
INTERIOR_PROFILES
100
AcDbCircle
10
43.662991582895657
20
160.55036789202785
30
0
40
3.9999999999999796
210
0
220
-0
230
-1
100
AcDbArc
50
-123.74999999999572
51
56.249999999993086
0
LINE
5
188
100
AcDbEntity
8
INTERIOR_PROFILES
100
AcDbLine
10
-45.885272514974446
20
163.87624634123773
30
0
11
-23.435592982805812
21
178.87664263276753
31
0
0
CIRCLE
5
189
100
AcDbEntity
8
INTERIOR_PROFILES
100
AcDbCircle
10
-176.69089342116922
20
4.9999999999999911
30
0
40
1.7000000000000171
210
0
220
0
230
-1
0
LWPOLYLINE
5
190
100
AcDbEntity
8
INTERIOR_PROFILES
100
AcDbPolyline
90
4
70
1
43
0.0
10
-23.435592982805669
20
199.26125801738269
10
-45.885272514973821
20
184.2608617258536
42
0.99999999999999989
10
-41.440710650817536
20
177.60910482743296
10
-18.991031118649705
20
192.60950111896247
42
0.99999999999999989
0
LINE
5
191
100
AcDbEntity
8
INTERIOR_PROFILES
100
AcDbLine
10
-18.991031118648692
20
274.14796265742393
30
0
11
-41.440710650817714
21
259.1475663658947
31
0
0
ARC
5
192
100
AcDbEntity
8
INTERIOR_PROFILES
100
AcDbCircle
10
43.6629915828957
20
262.47344481510481
30
0
40
3.9999999999996794
210
0
220
-0
230
-1
100
AcDbArc
50
-123.7499999999955
51
56.249999999993257
0
LINE
5
193
100
AcDbEntity
8
INTERIOR_PROFILES
100
AcDbLine
10
-45.885272514974474
20
265.79932326431469
30
0
11
-23.435592982805847
21
280.79971955584449
31
0
0
ARC
5
194
100
AcDbEntity
8
INTERIOR_PROFILES
100
AcDbCircle
10
21.213312050727712
20
277.4738411066341
30
0
40
3.9999999999999991
210
0
220
0
230
-1
100
AcDbArc
50
56.250000000004945
51
236.24999999999255
0
LINE
5
195
100
AcDbEntity
8
INTERIOR_PROFILES
100
AcDbLine
10
-18.991031118648674
20
253.76334727280857
30
0
11
-41.440710650817692
21
238.76295098127937
31
0
0
ARC
5
196
100
AcDbEntity
8
INTERIOR_PROFILES
100
AcDbCircle
10
43.662991582895678
20
242.08882943048945
30
0
40
3.9999999999996794
210
0
220
-0
230
-1
100
AcDbArc
50
-123.74999999999577
51
56.249999999993179
0
LINE
5
197
100
AcDbEntity
8
INTERIOR_PROFILES
100
AcDbLine
10
-45.88527251497446
20
245.41470787969934
30
0
11
-23.435592982805677
21
260.41510417122885
31
0
0
ARC
5
198
100
AcDbEntity
8
INTERIOR_PROFILES
100
AcDbCircle
10
21.213312050727687
20
257.08922572201874
30
0
40
3.999999999999714
210
0
220
0
230
-1
100
AcDbArc
50
56.25000000000442
51
236.24999999999267
0
LINE
5
199
100
AcDbEntity
8
INTERIOR_PROFILES
100
AcDbLine
10
-18.991031118648657
20
151.84027034973158
30
0
11
-41.440710650817678
21
136.83987405820238
31
0
0
ARC
5
200
100
AcDbEntity
8
INTERIOR_PROFILES
100
AcDbCircle
10
43.662991582895657
20
140.16575250741249
30
0
40
3.9999999999996794
210
0
220
-0
230
-1
100
AcDbArc
50
-123.74999999999547
51
56.249999999993086
0
LINE
5
201
100
AcDbEntity
8
INTERIOR_PROFILES
100
AcDbLine
10
-45.885272514974446
20
143.49163095662237
30
0
11
-23.435592982805797
21
158.49202724815214
31
0
0
ARC
5
202
100
AcDbEntity
8
INTERIOR_PROFILES
100
AcDbCircle
10
21.213312050727669
20
155.16614879894178
30
0
40
3.9999999999999969
210
0
220
0
230
-1
100
AcDbArc
50
56.25000000000481
51
236.24999999999289
0
LINE
5
203
100
AcDbEntity
8
BEND
100
AcDbLine
10
351.11948156128557
20
-6.2172489379008766e-14
30
7.2719608112947753e-14
11
351.11948156128557
21
310.7050063848472
31
7.4384942649885488e-14
0
LINE
5
204
100
AcDbEntity
8
BEND
100
AcDbLine
10
-66.26194671058451
20
307.85250319242346
30
-4.6873333488155459e-13
11
-66.26194671058451
21
2.8525031924235833
31
-4.4879230878691666e-13
0
LINE
5
205
100
AcDbEntity
8
BEND
100
AcDbLine
10
2.2619467105847146
20
310.70500638484725
30
9.936496070395151e-14
11
2.2619467105847146
21
0
31
5.6621374255882971e-14
0
LINE
5
206
100
AcDbEntity
8
BEND
100
AcDbLine
10
419.64337498245476
20
0.6525031924237501
30
-5.417212800292302e-14
11
419.64337498245476
21
309.90550319242362
31
-6.1562581266034481e-14
0
LINE
5
207
100
AcDbEntity
8
BEND_EXTENT
100
AcDbLine
10
421.90532169303941
20
309.90550319242362
30
-7.1054273576010019e-14
11
421.90532169303941
21
0.6525031924237723
31
-6.2172489379008766e-14
0
LINE
5
208
100
AcDbEntity
8
BEND_EXTENT
100
AcDbLine
10
-68.523893421169106
20
2.8525031924235389
30
-4.6185277824406512e-13
11
-68.523893421169134
21
307.85250319242346
31
-4.6185277824406512e-13
0
LINE
5
209
100
AcDbEntity
8
BEND_EXTENT
100
AcDbLine
10
-63.99999999999995
20
307.85250319242346
30
-4.2632564145606011e-13
11
-63.99999999999995
21
2.8525031924235833
31
-3.5527136788005009e-13
0
LINE
5
210
100
AcDbEntity
8
BEND_EXTENT
100
AcDbLine
10
0
20
0
30
0
11
4.4408920985006262e-15
21
310.70500638484725
31
7.1054273576010019e-14
0
LINE
5
211
100
AcDbEntity
8
BEND_EXTENT
100
AcDbLine
10
4.5238934211692472
20
310.70500638484725
30
7.1054273576010019e-14
11
4.5238934211692783
21
3.5527136788005009e-14
31
7.1054273576010019e-14
0
LINE
5
212
100
AcDbEntity
8
BEND_EXTENT
100
AcDbLine
10
348.85753485070092
20
8.8817841970012523e-15
30
7.1054273576010019e-14
11
348.85753485070086
21
310.70500638484725
31
7.1054273576010019e-14
0
LINE
5
213
100
AcDbEntity
8
BEND_EXTENT
100
AcDbLine
10
417.38142827187016
20
0.65250319242360799
30
-3.5527136788005009e-14
11
417.38142827187016
21
309.90550319242362
31
-3.5527136788005009e-14
0
LINE
5
214
100
AcDbEntity
8
BEND_EXTENT
100
AcDbLine
10
353.38142827187022
20
310.70500638484725
30
6.2172489379008766e-14
11
353.38142827187022
21
-7.1054273576010019e-14
31
7.1054273576010019e-14
0
ENDSEC
0
SECTION
2
OBJECTS
0
DICTIONARY
5
C
100
AcDbDictionary
3
ACAD_GROUP
350
D
3
ACAD_MLINESTYLE
350
17
0
DICTIONARY
5
D
100
AcDbDictionary
0
DICTIONARY
5
1A
330
C
100
AcDbDictionary
0
DICTIONARY
5
17
100
AcDbDictionary
0
ENDSEC
0
EOF
