0
SECTION
2
HEADER
9
$INSUNITS
70
4
9
$ACADVER
1
AC1014
9
$HANDSEED
5
FFFF
0
ENDSEC
0
SECTION
2
TABLES
0
TABLE
2
VPORT
5
8
100
AcDbSymbolTable
0
ENDTAB
0
TABLE
2
LTYPE
5
5
100
AcDbSymbolTable
0
LTYPE
5
14
100
AcDbSymbolTableRecord
100
AcDbLinetypeTableRecord
2
BYBLOCK
70
0
0
LTYPE
5
15
100
AcDbSymbolTableRecord
100
AcDbLinetypeTableRecord
2
BYLAYER
70
0
0
ENDTAB
0
TABLE
2
LAYER
5
2
100
AcDbSymbolTable
70
2
0
LAYER
5
50
100
AcDbSymbolTableRecord
100
AcDbLayerTableRecord
2
0
70
0
6
CONTINUOUS
0
ENDTAB
0
TABLE
2
STYLE
5
3
100
AcDbSymbolTable
70
1
0
STYLE
5
11
100
AcDbSymbolTableRecord
100
AcDbTextStyleTableRecord
2
STANDARD
70
0
0
ENDTAB
0
TABLE
2
VIEW
5
6
100
AcDbSymbolTable
70
0
0
ENDTAB
0
TABLE
2
UCS
5
7
100
AcDbSymbolTable
70
0
0
ENDTAB
0
TABLE
2
APPID
5
9
100
AcDbSymbolTable
70
2
0
APPID
5
12
100
AcDbSymbolTableRecord
100
AcDbRegAppTableRecord
2
ACAD
70
0
0
ENDTAB
0
TABLE
2
DIMSTYLE
5
A
100
AcDbSymbolTable
70
1
0
ENDTAB
0
TABLE
2
BLOCK_RECORD
5
1
100
AcDbSymbolTable
70
1
0
BLOCK_RECORD
5
1F
100
AcDbSymbolTableRecord
100
AcDbBlockTableRecord
2
*MODEL_SPACE
0
BLOCK_RECORD
5
1B
100
AcDbSymbolTableRecord
100
AcDbBlockTableRecord
2
*PAPER_SPACE
0
ENDTAB
0
ENDSEC
0
SECTION
2
BLOCKS
0
BLOCK
5
20
100
AcDbEntity
100
AcDbBlockBegin
2
*MODEL_SPACE
0
ENDBLK
5
21
100
AcDbEntity
100
AcDbBlockEnd
0
BLOCK
5
1C
100
AcDbEntity
100
AcDbBlockBegin
2
*PAPER_SPACE
0
ENDBLK
5
1D
100
AcDbEntity
100
AcDbBlockEnd
0
ENDSEC
0
SECTION
2
ENTITIES
0
LWPOLYLINE
5
100
100
AcDbEntity
8
OUTER_PROFILES
100
AcDbPolyline
90
18
70
1
43
0.0
10
67.523893421169333
20
59.999999999999993
10
69.283770450621603
20
59.999999999999993
42
1.0271967777950701
10
70.283410539782196
20
59.999999999999993
10
76.047786842338624
20
60
42
-0.41421356237309509
10
80.047786842338624
20
56
10
80.047786842338638
20
3.9999999999999702
42
-0.41421356237309515
10
76.047786842338638
20
-3.3306690738754696e-14
10
70.279789843822613
20
-1.0113437864944785e-14
42
0.9574418808249533
10
69.280734800401561
20
-8.749293365341374e-15
10
67.523893421169333
20
-8.8817841970012523e-15
10
9.7515410900737347
20
2.1575623232461538e-15
42
0.98244252106560448
10
8.7516979525388177
20
-1.2576745200831851e-16
10
-8.3266726846886741e-16
20
-5.5511151231257827e-15
42
-0.41421356237309526
10
-4.000000000000008
20
3.9999999999999947
10
-3.9999999999999747
20
56
42
-0.41421356237309637
10
2.6645352591003757e-14
20
60.000000000000014
10
8.7518678822979048
20
59.999999999999986
42
1.0240056021841255
10
9.7515865816730862
20
59.999999999999986
0
LWPOLYLINE
5
101
100
AcDbEntity
8
INTERIOR_PROFILES
100
AcDbPolyline
90
6
70
1
43
0.0
10
37.624753011042799
20
19.434927837976012
10
43.15875527926611
20
29.748724609864237
10
37.624645114518572
20
40.063571185040388
10
23.751979766191376
20
49.936301388351716
10
30.823240895424743
20
29.748716544339807
10
23.7521909404275
20
9.5620525156829252
0
LWPOLYLINE
5
102
100
AcDbEntity
8
INTERIOR_PROFILES
100
AcDbPolyline
90
3
70
1
43
0.0
10
47.163951212014226
20
23.232847246744001
10
29.920953109464172
20
11.951890857187571
10
38.033884186497161
20
9.2404799422257877
0
LWPOLYLINE
5
103
100
AcDbEntity
8
INTERIOR_PROFILES
100
AcDbPolyline
90
6
70
1
43
0.0
10
45.055856380400087
20
29.748790986873104
10
40.16774857480064
20
20.861352841157348
10
46.980456879771353
20
25.468902756200869
10
49.316763970204121
20
29.748759428093017
10
46.980412114866724
20
34.02748350115484
10
40.167655605665757
20
38.636067466644732
0
LWPOLYLINE
5
104
100
AcDbEntity
8
INTERIOR_PROFILES
100
AcDbPolyline
90
6
70
1
43
0.0
10
51.407671558967614
20
29.748824209259126
10
48.604944780585001
20
24.823406073509716
10
52.285751846496105
20
26.614702198729351
10
53.888484225524643
20
29.74878254878459
10
52.285719075319776
20
32.880192112688292
10
48.604893257280715
20
34.674102494473154
0
LWPOLYLINE
5
105
100
AcDbEntity
8
INTERIOR_PROFILES
100
AcDbPolyline
90
3
70
1
43
0.0
10
23.146566129817732
20
13.687534847780283
10
25.749550350754351
20
20.861277427963959
10
17.656114968608996
20
15.520895584438259
0
LWPOLYLINE
5
106
100
AcDbEntity
8
INTERIOR_PROFILES
100
AcDbPolyline
90
3
70
1
43
0.0
10
29.920766948519333
20
47.543880350514684
10
47.163883050571656
20
36.264646246871862
10
38.033669658690499
20
50.255923257500399
0
LWPOLYLINE
5
107
100
AcDbEntity
8
INTERIOR_PROFILES
100
AcDbPolyline
90
3
70
1
43
0.0
10
25.749457381776271
20
38.635992053138082
10
23.146398123377608
20
45.808602086587683
10
17.655966146143328
20
43.97418912984562
0
CIRCLE
5
108
100
AcDbEntity
8
INTERIOR_PROFILES
100
AcDbCircle
10
-76.047786842338624
20
56
30
0
40
1.2645000000000017
210
0
220
0
230
-1
0
CIRCLE
5
109
100
AcDbEntity
8
INTERIOR_PROFILES
100
AcDbCircle
10
-76.047786842338638
20
3.999999999999968
30
0
40
1.2645000000000017
210
0
220
0
230
-1
0
LINE
5
110
100
AcDbEntity
8
BEND
100
AcDbLine
10
9.2619467105845956
20
-1.7763568394002505e-14
30
-1.2489673533002461e-15
11
9.2619467105846027
21
59.999999999999986
31
-1.2489673533003092e-15
0
LINE
5
111
100
AcDbEntity
8
BEND
100
AcDbLine
10
69.785840131754014
20
-8.8817841970012523e-15
30
-7.4105386012197617e-13
11
69.785840131754
21
60.000000000000014
31
-7.4105386012197617e-13
0
LINE
5
112
100
AcDbEntity
8
BEND_EXTENT
100
AcDbLine
10
6.9999999999999396
20
59.999999999999993
30
-2.8186815631411163e-15
11
6.9999999999999378
21
0
31
-2.8186815631410848e-15
0
LINE
5
113
100
AcDbEntity
8
BEND_EXTENT
100
AcDbLine
10
11.523893421169305
20
-1.7763568394002505e-14
30
-3.0099222173348139e-15
11
11.523893421169312
21
59.999999999999986
31
-3.0099222173349086e-15
0
LINE
5
114
100
AcDbEntity
8
BEND_EXTENT
100
AcDbLine
10
67.523893421169333
20
-8.8817841970012523e-15
30
-6.6504783690655975e-13
11
67.523893421169333
21
59.999999999999993
31
-6.6504783690655975e-13
0
LINE
5
115
100
AcDbEntity
8
BEND_EXTENT
100
AcDbLine
10
72.04778684233861
20
59.999999999999993
30
-7.9180450236802068e-13
11
72.047786842338638
21
-8.8817841970012523e-15
31
-7.9180450236802068e-13
0
ENDSEC
0
SECTION
2
OBJECTS
0
DICTIONARY
5
C
100
AcDbDictionary
3
ACAD_GROUP
350
D
3
ACAD_MLINESTYLE
350
17
0
DICTIONARY
5
D
100
AcDbDictionary
0
DICTIONARY
5
1A
330
C
100
AcDbDictionary
0
DICTIONARY
5
17
100
AcDbDictionary
0
ENDSEC
0
EOF
