0
SECTION
2
HEADER
9
$INSUNITS
70
4
9
$ACADVER
1
AC1014
9
$HANDSEED
5
FFFF
0
ENDSEC
0
SECTION
2
TABLES
0
TABLE
2
VPORT
5
8
100
AcDbSymbolTable
0
ENDTAB
0
TABLE
2
LTYPE
5
5
100
AcDbSymbolTable
0
LTYPE
5
14
100
AcDbSymbolTableRecord
100
AcDbLinetypeTableRecord
2
BYBLOCK
70
0
0
LTYPE
5
15
100
AcDbSymbolTableRecord
100
AcDbLinetypeTableRecord
2
BYLAYER
70
0
0
ENDTAB
0
TABLE
2
LAYER
5
2
100
AcDbSymbolTable
70
2
0
LAYER
5
50
100
AcDbSymbolTableRecord
100
AcDbLayerTableRecord
2
0
70
0
6
CONTINUOUS
0
ENDTAB
0
TABLE
2
STYLE
5
3
100
AcDbSymbolTable
70
1
0
STYLE
5
11
100
AcDbSymbolTableRecord
100
AcDbTextStyleTableRecord
2
STANDARD
70
0
0
ENDTAB
0
TABLE
2
VIEW
5
6
100
AcDbSymbolTable
70
0
0
ENDTAB
0
TABLE
2
UCS
5
7
100
AcDbSymbolTable
70
0
0
ENDTAB
0
TABLE
2
APPID
5
9
100
AcDbSymbolTable
70
2
0
APPID
5
12
100
AcDbSymbolTableRecord
100
AcDbRegAppTableRecord
2
ACAD
70
0
0
ENDTAB
0
TABLE
2
DIMSTYLE
5
A
100
AcDbSymbolTable
70
1
0
ENDTAB
0
TABLE
2
BLOCK_RECORD
5
1
100
AcDbSymbolTable
70
1
0
BLOCK_RECORD
5
1F
100
AcDbSymbolTableRecord
100
AcDbBlockTableRecord
2
*MODEL_SPACE
0
BLOCK_RECORD
5
1B
100
AcDbSymbolTableRecord
100
AcDbBlockTableRecord
2
*PAPER_SPACE
0
ENDTAB
0
ENDSEC
0
SECTION
2
BLOCKS
0
BLOCK
5
20
100
AcDbEntity
100
AcDbBlockBegin
2
*MODEL_SPACE
0
ENDBLK
5
21
100
AcDbEntity
100
AcDbBlockEnd
0
BLOCK
5
1C
100
AcDbEntity
100
AcDbBlockBegin
2
*PAPER_SPACE
0
ENDBLK
5
1D
100
AcDbEntity
100
AcDbBlockEnd
0
ENDSEC
0
SECTION
2
ENTITIES
0
LWPOLYLINE
5
100
100
AcDbEntity
8
0
100
AcDbPolyline
90
32
70
1
43
0.0
10
-344.96696193616827
20
-355.97970523231322
42
-0.19047667625498546
10
-346.31837534399801
20
-352.56096045104698
10
-346.31837534399773
20
-234.65468435737904
42
-0.19047667625498904
10
-344.96696193616805
20
-231.23593957611288
42
0.3952952016878431
10
-344.96696193616776
20
-220.9797052323128
42
-0.19047667625502321
10
-346.31837534399801
20
-217.56096045104599
10
-346.31837534399779
20
-98.679684357379998
42
-0.19047667625502024
10
-344.96696193616765
20
-95.260939576113401
42
0.39529520168790855
10
-344.96696193616788
20
-85.004705232312517
42
-0.19047667625501744
10
-346.31837534399801
20
-81.585960451045807
10
-346.31837534399801
20
-81.163309570395
42
-0.41421356237309509
10
-341.31837534399801
20
-76.163309570395
10
-21.318375343997999
20
-76.163309570395
42
-0.41421356237309509
10
-16.318375343997999
20
-81.163309570395
10
-16.318375343997964
20
-81.684199667299112
42
-0.18770175497254954
10
-17.633361936167759
20
-85.063648762064645
42
0.38911270899347555
10
-17.63336193616777
20
-95.201996046361074
42
-0.18770175497254873
10
-16.318375343997999
20
-98.581445141126594
10
-16.318375343998184
20
-217.65919966729899
42
-0.18770175497253519
10
-17.633361936167731
20
-221.03864876206418
42
0.38911270899351047
10
-17.633361936168065
20
-231.17699604636118
42
-0.18770175497257127
10
-16.318375343997999
20
-234.55644514112703
10
-16.318375343997836
20
-352.65919966729803
42
-0.18770175497257838
10
-17.633361936168036
20
-356.0386487620641
42
0.38911270899354955
10
-17.633361936168136
20
-366.17699604636209
42
-0.18770175497257655
10
-16.318375343997999
20
-369.55644514112799
10
-16.318375343997999
20
-371.16330957039503
42
-0.41421356237309509
10
-21.318375343997999
20
-376.16330957039503
10
-341.31837534399801
20
-376.16330957039503
42
-0.41421356237309509
10
-346.31837534399801
20
-371.16330957039503
10
-346.31837534399773
20
-369.65468435737898
42
-0.19047667625498499
10
-344.96696193616805
20
-366.23593957611291
42
0.39529520168784416
0
LWPOLYLINE
5
101
100
AcDbEntity
8
0
100
AcDbPolyline
90
3
70
1
43
0.0
10
-210.34401565085702
20
-288.70152977498901
10
-271.92657315818701
20
-248.41855083340704
10
-239.31866818718302
20
-298.38739729993699
0
LWPOLYLINE
5
102
100
AcDbEntity
8
0
100
AcDbPolyline
90
6
70
1
43
0.0
10
-287.08296068817299
20
-225.14775784193301
10
-277.07322219395002
20
-207.556978785686
10
-290.21896171506
20
-213.95446494718399
10
-295.94300592587604
20
-225.14760905452403
10
-290.21884467514502
20
-236.331214639894
10
-277.07303818214803
20
-242.738037431983
0
LWPOLYLINE
5
103
100
AcDbEntity
8
0
100
AcDbPolyline
90
6
70
1
43
0.0
10
-264.39790647900298
20
-225.147639190554
10
-246.94037860186199
20
-193.40678867014103
10
-271.271479691043
20
-209.86232408101102
10
-279.615433585446
20
-225.147526480626
10
-271.27131981638399
20
-240.42868388441804
10
-246.94004656923704
20
-256.88791233259599
0
LWPOLYLINE
5
104
100
AcDbEntity
8
0
100
AcDbPolyline
90
3
70
1
43
0.0
10
-271.92681659190998
20
-201.87641154723599
10
-210.34468051137503
20
-161.58728158453499
10
-239.31943435792104
20
-151.90367117395704
0
LWPOLYLINE
5
105
100
AcDbEntity
8
0
100
AcDbPolyline
90
3
70
1
43
0.0
10
-186.15044129835201
20
-167.78601012236604
10
-195.446813515982
20
-193.406519337308
10
-166.54168715117802
20
-174.33372703900102
0
LWPOLYLINE
5
106
100
AcDbEntity
8
0
100
AcDbPolyline
90
6
70
1
43
0.0
10
-213.56713688980503
20
-225.147373324364
10
-188.31338705053
20
-153.05214465059004
10
-237.85825158844102
20
-188.31241365877901
10
-257.62254540352399
20
-225.147402129808
10
-237.85786624371201
20
-261.98613989829499
10
-188.312632856829
20
-297.245890624406
0
LWPOLYLINE
5
107
100
AcDbEntity
8
0
100
AcDbPolyline
90
3
70
1
43
0.0
10
-195.44648148391801
20
-256.88764299864403
10
-186.14984127535104
20
-282.50410740382102
10
-166.54115564237199
20
-275.95263255831298
0
CIRCLE
5
108
100
AcDbEntity
8
0
100
AcDbCircle
10
-91.291611476646594
20
-130.18135594763203
30
0
40
47.5
210
0
220
0
230
1
0
CIRCLE
5
109
100
AcDbEntity
8
0
100
AcDbCircle
10
-90.912910703158815
20
-227.34373438315103
30
0
40
43.500000000000007
210
0
220
0
230
1
0
CIRCLE
5
110
100
AcDbEntity
8
0
100
AcDbCircle
10
-91.291611476647205
20
-325.18135594763203
30
0
40
47.5
210
0
220
0
230
1
0
ENDSEC
0
SECTION
2
OBJECTS
0
DICTIONARY
5
C
100
AcDbDictionary
3
ACAD_GROUP
350
D
3
ACAD_MLINESTYLE
350
17
0
DICTIONARY
5
D
100
AcDbDictionary
0
DICTIONARY
5
1A
330
C
100
AcDbDictionary
0
DICTIONARY
5
17
100
AcDbDictionary
0
ENDSEC
0
EOF
