0
SECTION
2
HEADER
9
$INSUNITS
70
4
9
$ACADVER
1
AC1014
9
$HANDSEED
5
FFFF
0
ENDSEC
0
SECTION
2
TABLES
0
TABLE
2
VPORT
5
8
100
AcDbSymbolTable
0
ENDTAB
0
TABLE
2
LTYPE
5
5
100
AcDbSymbolTable
0
LTYPE
5
14
100
AcDbSymbolTableRecord
100
AcDbLinetypeTableRecord
2
BYBLOCK
70
0
0
LTYPE
5
15
100
AcDbSymbolTableRecord
100
AcDbLinetypeTableRecord
2
BYLAYER
70
0
0
ENDTAB
0
TABLE
2
LAYER
5
2
100
AcDbSymbolTable
70
2
0
LAYER
5
50
100
AcDbSymbolTableRecord
100
AcDbLayerTableRecord
2
0
70
0
6
CONTINUOUS
0
ENDTAB
0
TABLE
2
STYLE
5
3
100
AcDbSymbolTable
70
1
0
STYLE
5
11
100
AcDbSymbolTableRecord
100
AcDbTextStyleTableRecord
2
STANDARD
70
0
0
ENDTAB
0
TABLE
2
VIEW
5
6
100
AcDbSymbolTable
70
0
0
ENDTAB
0
TABLE
2
UCS
5
7
100
AcDbSymbolTable
70
0
0
ENDTAB
0
TABLE
2
APPID
5
9
100
AcDbSymbolTable
70
2
0
APPID
5
12
100
AcDbSymbolTableRecord
100
AcDbRegAppTableRecord
2
ACAD
70
0
0
ENDTAB
0
TABLE
2
DIMSTYLE
5
A
100
AcDbSymbolTable
70
1
0
ENDTAB
0
TABLE
2
BLOCK_RECORD
5
1
100
AcDbSymbolTable
70
1
0
BLOCK_RECORD
5
1F
100
AcDbSymbolTableRecord
100
AcDbBlockTableRecord
2
*MODEL_SPACE
0
BLOCK_RECORD
5
1B
100
AcDbSymbolTableRecord
100
AcDbBlockTableRecord
2
*PAPER_SPACE
0
ENDTAB
0
ENDSEC
0
SECTION
2
BLOCKS
0
BLOCK
5
20
100
AcDbEntity
100
AcDbBlockBegin
2
*MODEL_SPACE
0
ENDBLK
5
21
100
AcDbEntity
100
AcDbBlockEnd
0
BLOCK
5
1C
100
AcDbEntity
100
AcDbBlockBegin
2
*PAPER_SPACE
0
ENDBLK
5
1D
100
AcDbEntity
100
AcDbBlockEnd
0
ENDSEC
0
SECTION
2
ENTITIES
0
LWPOLYLINE
5
100
100
AcDbEntity
8
0
100
AcDbPolyline
90
14
70
1
43
0.0
10
124.99999999997199
20
279.53383313795104
42
-0.21342176528355247
10
134.99999999998602
20
301.89451291296149
42
0.21342176528355242
10
145
20
324.25519268797188
10
145.00000000000003
20
360.83792144050005
42
-0.41421356237309448
10
155
20
370.83792144050005
10
340.43949877257205
20
370.83792144050005
42
-0.41421356237309509
10
350.43949877257205
20
360.83792144050005
10
350.43949877257205
20
90.13300000000001
42
-0.41421356237309448
10
340.43949877257205
20
80.13300000000001
10
155
20
80.13300000000001
42
-0.41421356237309509
10
145
20
90.13300000000001
10
145
20
126.71572875252821
42
0.21342176528355264
10
134.99999999998602
20
149.07640852753866
42
-0.21342176528355095
10
124.999999999972
20
171.437088302549
0
LINE
5
101
100
AcDbEntity
8
0
100
AcDbLine
10
207.28602686034958
20
156.34731945019536
30
0
11
184.83634732818052
21
141.34692315866619
31
0
0
ARC
5
102
100
AcDbEntity
8
0
100
AcDbCircle
10
182.61406639610257
20
144.67280160787627
30
0
40
3.999999999999976
210
0
220
0
230
1
100
AcDbArc
50
123.75000000000675
51
303.74999999999534
0
LINE
5
103
100
AcDbEntity
8
0
100
AcDbLine
10
180.3917854640238
20
147.99868005708615
30
0
11
202.84146499619257
21
162.99907634861569
31
0
0
ARC
5
104
100
AcDbEntity
8
0
100
AcDbCircle
10
205.06374592827058
20
159.67319789940544
30
0
40
4.0000000000002265
210
-0
220
0
230
1
100
AcDbArc
50
-56.249999999992127
51
123.74999999999467
0
LINE
5
105
100
AcDbEntity
8
0
100
AcDbLine
10
242.28602686034958
20
156.34731945019536
30
0
11
219.83634732818052
21
141.34692315866619
31
0
0
ARC
5
106
100
AcDbEntity
8
0
100
AcDbCircle
10
217.61406639610257
20
144.67280160787627
30
0
40
3.999999999999976
210
0
220
0
230
1
100
AcDbArc
50
123.75000000000675
51
303.74999999999534
0
LINE
5
107
100
AcDbEntity
8
0
100
AcDbLine
10
215.3917854640238
20
147.99868005708615
30
0
11
237.84146499619257
21
162.99907634861569
31
0
0
ARC
5
108
100
AcDbEntity
8
0
100
AcDbCircle
10
240.06374592827058
20
159.67319789940544
30
0
40
4.0000000000002265
210
-0
220
0
230
1
100
AcDbArc
50
-56.249999999992127
51
123.74999999999467
0
LINE
5
109
100
AcDbEntity
8
0
100
AcDbLine
10
242.28602686034949
20
176.34731945019539
30
0
11
219.83634732818049
21
161.34692315866616
31
0
0
ARC
5
110
100
AcDbEntity
8
0
100
AcDbCircle
10
217.61406639610249
20
164.67280160787624
30
0
40
3.9999999999999956
210
0
220
0
230
1
100
AcDbArc
50
123.75000000000686
51
303.74999999999602
0
LINE
5
111
100
AcDbEntity
8
0
100
AcDbLine
10
215.39178546402368
20
167.99868005708615
30
0
11
237.84146499619251
21
182.99907634861569
31
0
0
ARC
5
112
100
AcDbEntity
8
0
100
AcDbCircle
10
240.06374592827052
20
179.67319789940544
30
0
40
4.0000000000002123
210
-0
220
0
230
1
100
AcDbArc
50
-56.249999999992227
51
123.74999999999467
0
LINE
5
113
100
AcDbEntity
8
0
100
AcDbLine
10
207.28602686034952
20
176.34731945019539
30
0
11
184.83634732818049
21
161.34692315866616
31
0
0
ARC
5
114
100
AcDbEntity
8
0
100
AcDbCircle
10
182.61406639610254
20
164.67280160787624
30
0
40
4.0000000000000249
210
0
220
0
230
1
100
AcDbArc
50
123.75000000000699
51
303.74999999999534
0
LINE
5
115
100
AcDbEntity
8
0
100
AcDbLine
10
180.39178546402371
20
167.99868005708618
30
0
11
202.84146499619254
21
182.99907634861569
31
0
0
ARC
5
116
100
AcDbEntity
8
0
100
AcDbCircle
10
205.06374592827052
20
179.67319789940547
30
0
40
4.0000000000002611
210
-0
220
0
230
1
100
AcDbArc
50
-56.249999999992127
51
123.7499991462341
0
LINE
5
117
100
AcDbEntity
8
0
100
AcDbLine
10
207.28602686034947
20
196.34731945019539
30
0
11
184.83634732818044
21
181.34692315866616
31
0
0
ARC
5
118
100
AcDbEntity
8
0
100
AcDbCircle
10
182.61406639610246
20
184.67280160787624
30
0
40
3.999999999999976
210
0
220
0
230
1
100
AcDbArc
50
123.75000000000652
51
303.74999999999562
0
LINE
5
119
100
AcDbEntity
8
0
100
AcDbLine
10
180.39178546402368
20
187.99868005708615
30
0
11
202.84146499619249
21
202.99907634861569
31
0
0
ARC
5
120
100
AcDbEntity
8
0
100
AcDbCircle
10
205.06374592827044
20
199.67319789940547
30
0
40
4.0000000000002611
210
-0
220
0
230
1
100
AcDbArc
50
-56.249999999991765
51
123.7499991462341
0
LINE
5
121
100
AcDbEntity
8
0
100
AcDbLine
10
242.28602686034947
20
196.34731945019539
30
0
11
219.83634732818044
21
181.34692315866616
31
0
0
ARC
5
122
100
AcDbEntity
8
0
100
AcDbCircle
10
217.61406639610246
20
184.67280160787624
30
0
40
3.999999999999976
210
0
220
0
230
1
100
AcDbArc
50
123.75000000000652
51
303.74999999999562
0
LINE
5
123
100
AcDbEntity
8
0
100
AcDbLine
10
215.39178546402368
20
187.99868005708615
30
0
11
237.84146499619249
21
202.99907634861569
31
0
0
ARC
5
124
100
AcDbEntity
8
0
100
AcDbCircle
10
240.06374592827044
20
199.67319789940547
30
0
40
4.0000000000002611
210
-0
220
0
230
1
100
AcDbArc
50
-56.249999999991765
51
123.7499991462341
0
LINE
5
125
100
AcDbEntity
8
0
100
AcDbLine
10
242.28602686034941
20
216.34731945019539
30
0
11
219.83634732818041
21
201.34692315866616
31
0
0
ARC
5
126
100
AcDbEntity
8
0
100
AcDbCircle
10
217.6140663961024
20
204.67280160787624
30
0
40
3.9999999999999956
210
0
220
0
230
1
100
AcDbArc
50
123.75000000000719
51
303.74999999999602
0
LINE
5
127
100
AcDbEntity
8
0
100
AcDbLine
10
215.39178546402357
20
207.99868005708615
30
0
11
237.8414649961924
21
222.99907634861569
31
0
0
ARC
5
128
100
AcDbEntity
8
0
100
AcDbCircle
10
240.06374592827041
20
219.67319789940544
30
0
40
4.0000000000002123
210
-0
220
0
230
1
100
AcDbArc
50
-56.249999999991921
51
123.74999999999467
0
LINE
5
129
100
AcDbEntity
8
0
100
AcDbLine
10
207.28602686034941
20
216.34731945019539
30
0
11
184.83634732818041
21
201.34692315866616
31
0
0
ARC
5
130
100
AcDbEntity
8
0
100
AcDbCircle
10
182.6140663961024
20
204.67280160787624
30
0
40
3.9999999999999956
210
0
220
0
230
1
100
AcDbArc
50
123.75000000000719
51
303.74999999999602
0
LINE
5
131
100
AcDbEntity
8
0
100
AcDbLine
10
180.39178546402357
20
207.99868005708615
30
0
11
202.8414649961924
21
222.99907634861569
31
0
0
ARC
5
132
100
AcDbEntity
8
0
100
AcDbCircle
10
205.06374592827041
20
219.67319789940544
30
0
40
4.0000000000002123
210
-0
220
0
230
1
100
AcDbArc
50
-56.249999999991921
51
123.74999999999467
0
LINE
5
133
100
AcDbEntity
8
0
100
AcDbLine
10
207.28602686034935
20
236.34731945019539
30
0
11
184.83634732818032
21
221.34692315866619
31
0
0
ARC
5
134
100
AcDbEntity
8
0
100
AcDbCircle
10
182.61406639610237
20
224.67280160787627
30
0
40
3.999999999999976
210
0
220
0
230
1
100
AcDbArc
50
123.75000000000686
51
303.74999999999534
0
LINE
5
135
100
AcDbEntity
8
0
100
AcDbLine
10
180.39178546402357
20
227.99868005708618
30
0
11
202.84146499619237
21
242.99907634861569
31
0
0
ARC
5
136
100
AcDbEntity
8
0
100
AcDbCircle
10
205.06374592827035
20
239.67319789940544
30
0
40
4.0000000000002123
210
-0
220
0
230
1
100
AcDbArc
50
-56.249999999991921
51
123.74999999999434
0
LINE
5
137
100
AcDbEntity
8
0
100
AcDbLine
10
242.28602686034935
20
236.34731945019539
30
0
11
219.83634732818032
21
221.34692315866619
31
0
0
ARC
5
138
100
AcDbEntity
8
0
100
AcDbCircle
10
217.61406639610237
20
224.67280160787627
30
0
40
3.999999999999976
210
0
220
0
230
1
100
AcDbArc
50
123.75000000000686
51
303.74999999999534
0
LINE
5
139
100
AcDbEntity
8
0
100
AcDbLine
10
215.39178546402357
20
227.99868005708618
30
0
11
237.84146499619237
21
242.99907634861569
31
0
0
ARC
5
140
100
AcDbEntity
8
0
100
AcDbCircle
10
240.06374592827035
20
239.67319789940547
30
0
40
4.0000000000002416
210
-0
220
0
230
1
100
AcDbArc
50
-56.249999999992127
51
123.74999999999454
0
LINE
5
141
100
AcDbEntity
8
0
100
AcDbLine
10
242.2860268603493
20
256.34731945019541
30
0
11
219.8363473281803
21
241.34692315866619
31
0
0
ARC
5
142
100
AcDbEntity
8
0
100
AcDbCircle
10
217.61406639610232
20
244.67280160787627
30
0
40
4.0000000000000249
210
0
220
0
230
1
100
AcDbArc
50
123.75000000000662
51
303.74999999999562
0
LINE
5
143
100
AcDbEntity
8
0
100
AcDbLine
10
215.39178546402351
20
247.9986800570862
30
0
11
237.84146499619231
21
262.99907634861569
31
0
0
ARC
5
144
100
AcDbEntity
8
0
100
AcDbCircle
10
240.06374592827029
20
259.67319789940541
30
0
40
4.0000000000002123
210
-0
220
0
230
1
100
AcDbArc
50
-56.249999999991459
51
123.74999914623366
0
LINE
5
145
100
AcDbEntity
8
0
100
AcDbLine
10
207.28602686034932
20
256.34731945019541
30
0
11
184.8363473281803
21
241.34692315866619
31
0
0
ARC
5
146
100
AcDbEntity
8
0
100
AcDbCircle
10
182.61406639610232
20
244.67280160787627
30
0
40
4.0000000000000249
210
0
220
0
230
1
100
AcDbArc
50
123.75000000000662
51
303.74999999999562
0
LINE
5
147
100
AcDbEntity
8
0
100
AcDbLine
10
180.39178546402351
20
247.9986800570862
30
0
11
202.84146499619231
21
262.99907634861569
31
0
0
ARC
5
148
100
AcDbEntity
8
0
100
AcDbCircle
10
205.06374592827029
20
259.67319789940547
30
0
40
4.0000000000002611
210
-0
220
0
230
1
100
AcDbArc
50
-56.249999999991566
51
123.7499991462341
0
LINE
5
149
100
AcDbEntity
8
0
100
AcDbLine
10
207.28602686034924
20
276.34731945019541
30
0
11
184.83634732818024
21
261.34692315866619
31
0
0
ARC
5
150
100
AcDbEntity
8
0
100
AcDbCircle
10
182.61406639610226
20
264.67280160787629
30
0
40
3.9999999999999956
210
0
220
0
230
1
100
AcDbArc
50
123.75000000000742
51
303.74999999999545
0
LINE
5
151
100
AcDbEntity
8
0
100
AcDbLine
10
180.39178546402343
20
267.99868005708618
30
0
11
202.84146499619226
21
282.99907634861569
31
0
0
ARC
5
152
100
AcDbEntity
8
0
100
AcDbCircle
10
205.06374592827024
20
279.67319789940547
30
0
40
4.0000000000002611
210
-0
220
0
230
1
100
AcDbArc
50
-56.249999999991921
51
123.7499991462341
0
LINE
5
153
100
AcDbEntity
8
0
100
AcDbLine
10
242.28602686034924
20
276.34731945019541
30
0
11
219.83634732818024
21
261.34692315866619
31
0
0
ARC
5
154
100
AcDbEntity
8
0
100
AcDbCircle
10
217.61406639610226
20
264.67280160787629
30
0
40
3.9999999999999956
210
0
220
0
230
1
100
AcDbArc
50
123.75000000000742
51
303.74999999999545
0
LINE
5
155
100
AcDbEntity
8
0
100
AcDbLine
10
215.39178546402343
20
267.99868005708618
30
0
11
237.84146499619226
21
282.99907634861569
31
0
0
ARC
5
156
100
AcDbEntity
8
0
100
AcDbCircle
10
240.06374592827024
20
279.67319789940547
30
0
40
4.0000000000002611
210
-0
220
0
230
1
100
AcDbArc
50
-56.249999999991921
51
123.7499991462341
0
LWPOLYLINE
5
157
100
AcDbEntity
8
0
100
AcDbPolyline
90
4
70
1
43
0.0
10
219.83634732818018
20
281.34692315866619
10
242.28602686034918
20
296.34731945019541
42
0.99999999999999989
10
237.8414649961922
20
302.99907634861569
10
215.3917854640234
20
287.99868005708612
42
0.99999999999999989
0
LWPOLYLINE
5
158
100
AcDbEntity
8
0
100
AcDbPolyline
90
4
70
1
43
0.0
10
184.83634732818018
20
281.34692315866619
10
207.28602686034918
20
296.34731945019541
42
0.99999999999999989
10
202.8414649961922
20
302.99907634861569
10
180.3917854640234
20
287.99868005708612
42
0.99999999999999989
0
LWPOLYLINE
5
159
100
AcDbEntity
8
0
100
AcDbPolyline
90
4
70
1
43
0.0
10
184.83634732818007
20
321.34692315866619
10
207.28602686034912
20
336.34731945019541
42
0.99999999999999989
10
202.84146499619212
20
342.99907634861569
10
180.39178546402329
20
327.99868005708612
42
0.99999999999999989
0
LINE
5
160
100
AcDbEntity
8
0
100
AcDbLine
10
207.28602686034915
20
316.34731945019541
30
0
11
184.83634732818012
21
301.34692315866619
31
0
0
ARC
5
161
100
AcDbEntity
8
0
100
AcDbCircle
10
182.61406639610215
20
304.67280160787629
30
0
40
3.999999999999976
210
0
220
0
230
1
100
AcDbArc
50
123.75000000000675
51
303.74999999999545
0
LINE
5
162
100
AcDbEntity
8
0
100
AcDbLine
10
180.39178546402337
20
307.99868005708618
30
0
11
202.84146499619214
21
322.99907634861569
31
0
0
ARC
5
163
100
AcDbEntity
8
0
100
AcDbCircle
10
205.06374592827015
20
319.67319789940541
30
0
40
4.0000000000002123
210
-0
220
0
230
1
100
AcDbArc
50
-56.249999999991459
51
123.7499991462341
0
LINE
5
164
100
AcDbEntity
8
0
100
AcDbLine
10
242.28602686034915
20
316.34731945019541
30
0
11
219.83634732818012
21
301.34692315866619
31
0
0
ARC
5
165
100
AcDbEntity
8
0
100
AcDbCircle
10
217.61406639610215
20
304.67280160787629
30
0
40
3.999999999999976
210
0
220
0
230
1
100
AcDbArc
50
123.75000000000675
51
303.74999999999545
0
LINE
5
166
100
AcDbEntity
8
0
100
AcDbLine
10
215.39178546402337
20
307.99868005708618
30
0
11
237.84146499619214
21
322.99907634861569
31
0
0
ARC
5
167
100
AcDbEntity
8
0
100
AcDbCircle
10
240.06374592827015
20
319.67319789940541
30
0
40
4.0000000000002123
210
-0
220
0
230
1
100
AcDbArc
50
-56.249999999991459
51
123.7499991462341
0
LINE
5
168
100
AcDbEntity
8
0
100
AcDbLine
10
242.28602686034912
20
336.34731945019541
30
0
11
219.83634732818004
21
321.34692315866619
31
0
0
ARC
5
169
100
AcDbEntity
8
0
100
AcDbCircle
10
217.61406639610203
20
324.67280160787624
30
0
40
3.9999999999999658
210
0
220
0
230
1
100
AcDbArc
50
123.75000000000561
51
303.74999999999625
0
LINE
5
170
100
AcDbEntity
8
0
100
AcDbLine
10
215.39178546402331
20
327.99868005708618
30
0
11
237.84146499619212
21
342.99907634861569
31
0
0
ARC
5
171
100
AcDbEntity
8
0
100
AcDbCircle
10
240.06374592827012
20
339.67319789940547
30
0
40
4.0000000000002416
210
-0
220
0
230
1
100
AcDbArc
50
-56.249999999991921
51
123.7499999999949
0
LINE
5
172
100
AcDbEntity
8
0
100
AcDbLine
10
277.28602686034907
20
336.34731945019541
30
0
11
254.83634732818007
21
321.34692315866619
31
0
0
ARC
5
173
100
AcDbEntity
8
0
100
AcDbCircle
10
252.61406639610203
20
324.67280160787624
30
0
40
3.9999999999999263
210
0
220
0
230
1
100
AcDbArc
50
123.75000000000642
51
303.74999999999659
0
LINE
5
174
100
AcDbEntity
8
0
100
AcDbLine
10
250.39178546402329
20
327.99868005708612
30
0
11
272.84146499619209
21
342.99907634861569
31
0
0
ARC
5
175
100
AcDbEntity
8
0
100
AcDbCircle
10
275.06374592827007
20
339.67319789940547
30
0
40
4.0000000000002416
210
-0
220
0
230
1
100
AcDbArc
50
-56.249999999991921
51
123.74999852122797
0
LINE
5
176
100
AcDbEntity
8
0
100
AcDbLine
10
277.28602686034912
20
316.34731945019536
30
0
11
254.83634732818012
21
301.34692315866619
31
0
0
ARC
5
177
100
AcDbEntity
8
0
100
AcDbCircle
10
252.61406639610215
20
304.67280160787629
30
0
40
3.999999999999976
210
0
220
0
230
1
100
AcDbArc
50
123.75000000000675
51
303.74999999999545
0
LINE
5
178
100
AcDbEntity
8
0
100
AcDbLine
10
250.39178546402337
20
307.99868005708618
30
0
11
272.84146499619214
21
322.99907634861569
31
0
0
ARC
5
179
100
AcDbEntity
8
0
100
AcDbCircle
10
275.06374592827012
20
319.67319789940541
30
0
40
4.0000000000002123
210
-0
220
0
230
1
100
AcDbArc
50
-56.249999999991921
51
123.7499999999941
0
LINE
5
180
100
AcDbEntity
8
0
100
AcDbLine
10
277.28602686034918
20
296.34731945019536
30
0
11
254.83634732818018
21
281.34692315866619
31
0
0
ARC
5
181
100
AcDbEntity
8
0
100
AcDbCircle
10
252.61406639610217
20
284.67280160787629
30
0
40
3.9999999999999956
210
0
220
0
230
1
100
AcDbArc
50
123.75000000000708
51
303.74999999999585
0
LINE
5
182
100
AcDbEntity
8
0
100
AcDbLine
10
250.39178546402337
20
287.99868005708618
30
0
11
272.8414649961922
21
302.99907634861563
31
0
0
ARC
5
183
100
AcDbEntity
8
0
100
AcDbCircle
10
275.06374592827018
20
299.67319789940541
30
0
40
4.0000000000002416
210
-0
220
0
230
1
100
AcDbArc
50
-56.249999999991921
51
123.74999999999454
0
LINE
5
184
100
AcDbEntity
8
0
100
AcDbLine
10
277.28602686034924
20
276.34731945019536
30
0
11
254.83634732818021
21
261.34692315866619
31
0
0
ARC
5
185
100
AcDbEntity
8
0
100
AcDbCircle
10
252.61406639610226
20
264.67280160787629
30
0
40
3.999999999999976
210
0
220
0
230
1
100
AcDbArc
50
123.75000000000675
51
303.74999999999511
0
LINE
5
186
100
AcDbEntity
8
0
100
AcDbLine
10
250.39178546402349
20
267.99868005708618
30
0
11
272.84146499619226
21
282.99907634861563
31
0
0
ARC
5
187
100
AcDbEntity
8
0
100
AcDbCircle
10
275.06374592827024
20
279.67319789940541
30
0
40
4.0000000000002611
210
-0
220
0
230
1
100
AcDbArc
50
-56.249999999991921
51
123.74999914623366
0
LINE
5
188
100
AcDbEntity
8
0
100
AcDbLine
10
277.2860268603493
20
256.34731945019536
30
0
11
254.8363473281803
21
241.34692315866619
31
0
0
ARC
5
189
100
AcDbEntity
8
0
100
AcDbCircle
10
252.61406639610229
20
244.67280160787627
30
0
40
3.9999999999999956
210
0
220
0
230
1
100
AcDbArc
50
123.75000000000686
51
303.74999999999602
0
LINE
5
190
100
AcDbEntity
8
0
100
AcDbLine
10
250.39178546402349
20
247.99868005708618
30
0
11
272.84146499619231
21
262.99907634861563
31
0
0
ARC
5
191
100
AcDbEntity
8
0
100
AcDbCircle
10
275.06374592827029
20
259.67319789940541
30
0
40
4.0000000000002416
210
-0
220
0
230
1
100
AcDbArc
50
-56.249999999991921
51
123.74999999999454
0
LINE
5
192
100
AcDbEntity
8
0
100
AcDbLine
10
277.28602686034935
20
236.34731945019536
30
0
11
254.83634732818032
21
221.34692315866619
31
0
0
ARC
5
193
100
AcDbEntity
8
0
100
AcDbCircle
10
252.61406639610237
20
224.67280160787627
30
0
40
3.999999999999976
210
0
220
0
230
1
100
AcDbArc
50
123.75000000000686
51
303.74999999999534
0
LINE
5
194
100
AcDbEntity
8
0
100
AcDbLine
10
250.39178546402357
20
227.99868005708618
30
0
11
272.84146499619237
21
242.99907634861566
31
0
0
ARC
5
195
100
AcDbEntity
8
0
100
AcDbCircle
10
275.06374592827035
20
239.67319789940544
30
0
40
4.0000000000002416
210
-0
220
0
230
1
100
AcDbArc
50
-56.249999999992127
51
123.74999999999454
0
LINE
5
196
100
AcDbEntity
8
0
100
AcDbLine
10
277.28602686034941
20
216.34731945019536
30
0
11
254.83634732818041
21
201.34692315866616
31
0
0
ARC
5
197
100
AcDbEntity
8
0
100
AcDbCircle
10
252.6140663961024
20
204.67280160787624
30
0
40
3.9999999999999956
210
0
220
0
230
1
100
AcDbArc
50
123.75000000000719
51
303.74999999999602
0
LINE
5
198
100
AcDbEntity
8
0
100
AcDbLine
10
250.39178546402357
20
207.99868005708615
30
0
11
272.84146499619237
21
222.99907634861566
31
0
0
ARC
5
199
100
AcDbEntity
8
0
100
AcDbCircle
10
275.06374592827041
20
219.67319789940544
30
0
40
4.0000000000002416
210
-0
220
0
230
1
100
AcDbArc
50
-56.249999999992127
51
123.74999999999523
0
LINE
5
200
100
AcDbEntity
8
0
100
AcDbLine
10
277.28602686034947
20
196.34731945019539
30
0
11
254.83634732818047
21
181.34692315866616
31
0
0
ARC
5
201
100
AcDbEntity
8
0
100
AcDbCircle
10
252.61406639610246
20
184.67280160787624
30
0
40
3.9999999999999956
210
0
220
0
230
1
100
AcDbArc
50
123.75000000000686
51
303.74999999999602
0
LINE
5
202
100
AcDbEntity
8
0
100
AcDbLine
10
250.39178546402366
20
187.99868005708615
30
0
11
272.84146499619249
21
202.99907634861569
31
0
0
ARC
5
203
100
AcDbEntity
8
0
100
AcDbCircle
10
275.06374592827046
20
199.67319789940547
30
0
40
4.0000000000002611
210
-0
220
0
230
1
100
AcDbArc
50
-56.249999999992127
51
123.7499991462341
0
LINE
5
204
100
AcDbEntity
8
0
100
AcDbLine
10
277.28602686034952
20
176.34731945019539
30
0
11
254.83634732818049
21
161.34692315866616
31
0
0
ARC
5
205
100
AcDbEntity
8
0
100
AcDbCircle
10
252.61406639610249
20
164.67280160787624
30
0
40
3.9999999999999956
210
0
220
0
230
1
100
AcDbArc
50
123.75000000000686
51
303.74999999999602
0
LINE
5
206
100
AcDbEntity
8
0
100
AcDbLine
10
250.39178546402368
20
167.99868005708615
30
0
11
272.84146499619254
21
182.99907634861569
31
0
0
ARC
5
207
100
AcDbEntity
8
0
100
AcDbCircle
10
275.06374592827052
20
179.67319789940547
30
0
40
4.0000000000002611
210
-0
220
0
230
1
100
AcDbArc
50
-56.249999999992127
51
123.7499991462341
0
LINE
5
208
100
AcDbEntity
8
0
100
AcDbLine
10
277.28602686034958
20
156.34731945019536
30
0
11
254.83634732818058
21
141.34692315866619
31
0
0
ARC
5
209
100
AcDbEntity
8
0
100
AcDbCircle
10
252.61406639610257
20
144.67280160787627
30
0
40
3.9999999999999956
210
0
220
0
230
1
100
AcDbArc
50
123.75000000000708
51
303.74999999999602
0
LINE
5
210
100
AcDbEntity
8
0
100
AcDbLine
10
250.39178546402377
20
147.99868005708615
30
0
11
272.8414649961926
21
162.99907634861569
31
0
0
ARC
5
211
100
AcDbEntity
8
0
100
AcDbCircle
10
275.06374592827058
20
159.67319789940544
30
0
40
4.0000000000002265
210
-0
220
0
230
1
100
AcDbArc
50
-56.249999999992127
51
123.74999999999434
0
LINE
5
212
100
AcDbEntity
8
0
100
AcDbLine
10
312.28602686034907
20
336.34731945019541
30
0
11
289.83634732818007
21
321.34692315866619
31
0
0
ARC
5
213
100
AcDbEntity
8
0
100
AcDbCircle
10
287.61406639610203
20
324.67280160787624
30
0
40
3.9999999999999458
210
0
220
0
230
1
100
AcDbArc
50
123.75000000000675
51
303.74999999999659
0
LINE
5
214
100
AcDbEntity
8
0
100
AcDbLine
10
285.39178546402326
20
327.99868005708612
30
0
11
307.84146499619209
21
342.99907634861569
31
0
0
ARC
5
215
100
AcDbEntity
8
0
100
AcDbCircle
10
310.06374592827007
20
339.67319789940547
30
0
40
4.0000000000002416
210
-0
220
0
230
1
100
AcDbArc
50
-56.249999999991921
51
123.74999852122797
0
LINE
5
216
100
AcDbEntity
8
0
100
AcDbLine
10
312.28602686034912
20
316.34731945019536
30
0
11
289.83634732818012
21
301.34692315866619
31
0
0
ARC
5
217
100
AcDbEntity
8
0
100
AcDbCircle
10
287.61406639610215
20
304.67280160787624
30
0
40
3.999999999999976
210
0
220
0
230
1
100
AcDbArc
50
123.75000000000675
51
303.74999999999591
0
LINE
5
218
100
AcDbEntity
8
0
100
AcDbLine
10
285.39178546402337
20
307.99868005708612
30
0
11
307.84146499619214
21
322.99907634861569
31
0
0
ARC
5
219
100
AcDbEntity
8
0
100
AcDbCircle
10
310.06374592827012
20
319.67319789940541
30
0
40
4.0000000000002611
210
-0
220
0
230
1
100
AcDbArc
50
-56.249999999991921
51
123.7499999999941
0
LINE
5
220
100
AcDbEntity
8
0
100
AcDbLine
10
312.28602686034918
20
296.34731945019536
30
0
11
289.83634732818018
21
281.34692315866619
31
0
0
ARC
5
221
100
AcDbEntity
8
0
100
AcDbCircle
10
287.6140663961022
20
284.67280160787624
30
0
40
3.9999999999999956
210
0
220
0
230
1
100
AcDbArc
50
123.75000000000742
51
303.74999999999591
0
LINE
5
222
100
AcDbEntity
8
0
100
AcDbLine
10
285.39178546402337
20
287.99868005708612
30
0
11
307.8414649961922
21
302.99907634861563
31
0
0
ARC
5
223
100
AcDbEntity
8
0
100
AcDbCircle
10
310.06374592827018
20
299.67319789940541
30
0
40
4.0000000000002416
210
-0
220
0
230
1
100
AcDbArc
50
-56.249999999991921
51
123.74999999999454
0
LINE
5
224
100
AcDbEntity
8
0
100
AcDbLine
10
312.28602686034924
20
276.34731945019536
30
0
11
289.83634732818024
21
261.34692315866619
31
0
0
ARC
5
225
100
AcDbEntity
8
0
100
AcDbCircle
10
287.61406639610226
20
264.67280160787624
30
0
40
3.999999999999976
210
0
220
0
230
1
100
AcDbArc
50
123.75000000000675
51
303.74999999999591
0
LINE
5
226
100
AcDbEntity
8
0
100
AcDbLine
10
285.39178546402349
20
267.99868005708612
30
0
11
307.84146499619226
21
282.99907634861563
31
0
0
ARC
5
227
100
AcDbEntity
8
0
100
AcDbCircle
10
310.06374592827024
20
279.67319789940541
30
0
40
4.0000000000002611
210
-0
220
0
230
1
100
AcDbArc
50
-56.249999999991921
51
123.74999914623366
0
LINE
5
228
100
AcDbEntity
8
0
100
AcDbLine
10
312.2860268603493
20
256.34731945019536
30
0
11
289.8363473281803
21
241.34692315866616
31
0
0
ARC
5
229
100
AcDbEntity
8
0
100
AcDbCircle
10
287.61406639610232
20
244.67280160787624
30
0
40
3.9999999999999956
210
0
220
0
230
1
100
AcDbArc
50
123.75000000000719
51
303.74999999999562
0
LINE
5
230
100
AcDbEntity
8
0
100
AcDbLine
10
285.39178546402349
20
247.99868005708615
30
0
11
307.84146499619231
21
262.99907634861563
31
0
0
ARC
5
231
100
AcDbEntity
8
0
100
AcDbCircle
10
310.06374592827029
20
259.67319789940541
30
0
40
4.0000000000002416
210
-0
220
0
230
1
100
AcDbArc
50
-56.249999999991921
51
123.74999999999454
0
LINE
5
232
100
AcDbEntity
8
0
100
AcDbLine
10
312.28602686034935
20
236.34731945019536
30
0
11
289.8363473281803
21
221.34692315866616
31
0
0
ARC
5
233
100
AcDbEntity
8
0
100
AcDbCircle
10
287.61406639610237
20
224.67280160787624
30
0
40
3.999999999999976
210
0
220
0
230
1
100
AcDbArc
50
123.75000000000652
51
303.749999999995
0
LINE
5
234
100
AcDbEntity
8
0
100
AcDbLine
10
285.3917854640236
20
227.99868005708615
30
0
11
307.84146499619237
21
242.99907634861566
31
0
0
ARC
5
235
100
AcDbEntity
8
0
100
AcDbCircle
10
310.06374592827035
20
239.67319789940544
30
0
40
4.0000000000002416
210
-0
220
0
230
1
100
AcDbArc
50
-56.249999999992127
51
123.74999999999454
0
LINE
5
236
100
AcDbEntity
8
0
100
AcDbLine
10
312.28602686034941
20
216.34731945019536
30
0
11
289.83634732818041
21
201.34692315866616
31
0
0
ARC
5
237
100
AcDbEntity
8
0
100
AcDbCircle
10
287.61406639610237
20
204.67280160787624
30
0
40
3.9999999999999956
210
0
220
0
230
1
100
AcDbArc
50
123.75000000000652
51
303.74999999999636
0
LINE
5
238
100
AcDbEntity
8
0
100
AcDbLine
10
285.3917854640236
20
207.99868005708615
30
0
11
307.84146499619237
21
222.99907634861566
31
0
0
ARC
5
239
100
AcDbEntity
8
0
100
AcDbCircle
10
310.06374592827041
20
219.67319789940544
30
0
40
4.0000000000002416
210
-0
220
0
230
1
100
AcDbArc
50
-56.249999999992127
51
123.74999999999523
0
LINE
5
240
100
AcDbEntity
8
0
100
AcDbLine
10
312.28602686034947
20
196.34731945019539
30
0
11
289.83634732818047
21
181.34692315866616
31
0
0
ARC
5
241
100
AcDbEntity
8
0
100
AcDbCircle
10
287.61406639610249
20
184.67280160787624
30
0
40
3.9999999999999956
210
0
220
0
230
1
100
AcDbArc
50
123.75000000000719
51
303.74999999999562
0
LINE
5
242
100
AcDbEntity
8
0
100
AcDbLine
10
285.39178546402366
20
187.99868005708615
30
0
11
307.84146499619249
21
202.99907634861569
31
0
0
ARC
5
243
100
AcDbEntity
8
0
100
AcDbCircle
10
310.06374592827046
20
199.67319789940544
30
0
40
4.0000000000002123
210
-0
220
0
230
1
100
AcDbArc
50
-56.249999999991921
51
123.74999999999434
0
LINE
5
244
100
AcDbEntity
8
0
100
AcDbLine
10
312.28602686034952
20
176.34731945019539
30
0
11
289.83634732818052
21
161.34692315866616
31
0
0
ARC
5
245
100
AcDbEntity
8
0
100
AcDbCircle
10
287.61406639610254
20
164.67280160787624
30
0
40
3.999999999999976
210
0
220
0
230
1
100
AcDbArc
50
123.75000000000652
51
303.74999999999562
0
LINE
5
246
100
AcDbEntity
8
0
100
AcDbLine
10
285.39178546402377
20
167.99868005708615
30
0
11
307.84146499619254
21
182.99907634861569
31
0
0
ARC
5
247
100
AcDbEntity
8
0
100
AcDbCircle
10
310.06374592827052
20
179.67319789940547
30
0
40
4.0000000000002611
210
-0
220
0
230
1
100
AcDbArc
50
-56.249999999992127
51
123.7499991462341
0
LINE
5
248
100
AcDbEntity
8
0
100
AcDbLine
10
312.28602686034958
20
156.34731945019536
30
0
11
289.83634732818058
21
141.34692315866619
31
0
0
ARC
5
249
100
AcDbEntity
8
0
100
AcDbCircle
10
287.61406639610254
20
144.67280160787627
30
0
40
3.9999999999999956
210
0
220
0
230
1
100
AcDbArc
50
123.75000000000675
51
303.74999999999636
0
LINE
5
250
100
AcDbEntity
8
0
100
AcDbLine
10
285.39178546402377
20
147.99868005708615
30
0
11
307.8414649961926
21
162.99907634861569
31
0
0
ARC
5
251
100
AcDbEntity
8
0
100
AcDbCircle
10
310.06374592827058
20
159.67319789940547
30
0
40
4.0000000000002567
210
-0
220
0
230
1
100
AcDbArc
50
-56.249999999992383
51
123.74999999999454
0
LINE
5
252
100
AcDbEntity
8
0
100
AcDbLine
10
312.28602686034964
20
136.34731945019536
30
0
11
289.83634732818064
21
121.34692315866617
31
0
0
ARC
5
253
100
AcDbEntity
8
0
100
AcDbCircle
10
287.61406639610266
20
124.67280160787625
30
0
40
3.999999999999976
210
0
220
0
230
1
100
AcDbArc
50
123.75000000000652
51
303.74999999999562
0
LINE
5
254
100
AcDbEntity
8
0
100
AcDbLine
10
285.39178546402388
20
127.99868005708616
30
0
11
307.84146499619266
21
142.99907634861566
31
0
0
ARC
5
255
100
AcDbEntity
8
0
100
AcDbCircle
10
310.06374592827058
20
139.67319789940547
30
0
40
4.0000000000002958
210
-0
220
0
230
1
100
AcDbArc
50
-56.249999999991665
51
123.7499999999941
0
LWPOLYLINE
5
256
100
AcDbEntity
8
0
100
AcDbPolyline
90
4
70
1
43
0.0
10
289.83634732818069
20
101.34692315866617
10
312.28602686034969
20
116.34731945019539
42
0.99999999999999989
10
307.84146499619271
20
122.99907634861569
10
285.39178546402388
20
107.99868005708618
42
0.99999999999999989
0
LINE
5
257
100
AcDbEntity
8
0
100
AcDbLine
10
277.28602686034964
20
136.34731945019536
30
0
11
254.83634732818061
21
121.34692315866617
31
0
0
ARC
5
258
100
AcDbEntity
8
0
100
AcDbCircle
10
252.61406639610266
20
124.67280160787625
30
0
40
3.9999999999999809
210
0
220
0
230
1
100
AcDbArc
50
123.75000000000732
51
303.74999999999534
0
LINE
5
259
100
AcDbEntity
8
0
100
AcDbLine
10
250.39178546402383
20
127.99868005708615
30
0
11
272.84146499619266
21
142.99907634861566
31
0
0
ARC
5
260
100
AcDbEntity
8
0
100
AcDbCircle
10
275.06374592827058
20
139.67319789940547
30
0
40
4.0000000000002958
210
-0
220
0
230
1
100
AcDbArc
50
-56.249999999991665
51
123.7499999999941
0
LWPOLYLINE
5
261
100
AcDbEntity
8
0
100
AcDbPolyline
90
4
70
1
43
0.0
10
254.83634732818069
20
101.34692315866616
10
277.28602686034969
20
116.34731945019537
42
0.99999999999999989
10
272.84146499619271
20
122.99907634861567
10
250.39178546402388
20
107.99868005708616
42
0.99999999999999989
0
LINE
5
262
100
AcDbEntity
8
0
100
AcDbLine
10
242.28602686034964
20
136.34731945019536
30
0
11
219.83634732818061
21
121.34692315866616
31
0
0
ARC
5
263
100
AcDbEntity
8
0
100
AcDbCircle
10
217.61406639610266
20
124.67280160787625
30
0
40
4
210
0
220
0
230
1
100
AcDbArc
50
123.75000000000765
51
303.74999999999523
0
LINE
5
264
100
AcDbEntity
8
0
100
AcDbLine
10
215.3917854640238
20
127.99868005708615
30
0
11
237.8414649961926
21
142.99907634861566
31
0
0
ARC
5
265
100
AcDbEntity
8
0
100
AcDbCircle
10
240.06374592827058
20
139.67319789940544
30
0
40
4.0000000000002816
210
-0
220
0
230
1
100
AcDbArc
50
-56.249999999991459
51
123.74999999999454
0
LWPOLYLINE
5
266
100
AcDbEntity
8
0
100
AcDbPolyline
90
4
70
1
43
0.0
10
219.83634732818069
20
101.34692315866616
10
242.28602686034969
20
116.34731945019537
42
0.99999999999999989
10
237.84146499619268
20
122.99907634861567
10
215.39178546402388
20
107.99868005708616
42
0.99999999999999989
0
LWPOLYLINE
5
267
100
AcDbEntity
8
0
100
AcDbPolyline
90
4
70
1
43
0.0
10
184.83634732818061
20
121.34692315866616
10
207.28602686034961
20
136.34731945019536
42
0.99999999999999989
10
202.8414649961926
20
142.99907634861566
10
180.3917854640238
20
127.99868005708615
42
0.99999999999999989
0
LWPOLYLINE
5
268
100
AcDbEntity
8
0
100
AcDbPolyline
90
4
70
1
43
0.0
10
184.83634732818069
20
101.34692315866616
10
207.28602686034969
20
116.34731945019537
42
0.99999999999999989
10
202.84146499619268
20
122.99907634861567
10
180.39178546402388
20
107.99868005708616
42
0.99999999999999989
0
ARC
5
269
100
AcDbEntity
8
0
100
AcDbCircle
10
144.66636632033865
20
260.31288705178184
30
0
40
2.4512944216034436
210
0
220
0
230
1
100
AcDbArc
50
-43.51700528834693
51
29.886540344394398
0
SPLINE
5
270
100
AcDbEntity
8
0
100
AcDbSpline
70
4
71
3
72
8
73
4
74
0
42
0.000000001
43
0.0000000001
44
0.0000000001
40
0.91632715281045163
40
0.91632715281045163
40
0.91632715281045163
40
0.91632715281045163
40
1
40
1
40
1
40
1
41
1
41
1
41
1
41
1
10
146.44397158581415
20
258.62499965579303
30
0
10
146.40443625203693
20
258.58669862326735
30
0
10
146.36519714263503
20
258.54805177793622
30
0
10
146.32625425808112
20
258.50910869080695
30
0
0
SPLINE
5
271
100
AcDbEntity
8
0
100
AcDbSpline
70
4
71
3
72
8
73
4
74
0
42
0.000000001
43
0.0000000001
44
0.0000000001
40
0
40
0
40
0
40
0
40
1
40
1
40
1
40
1
41
1
41
1
41
1
41
1
10
146.32625425808112
20
258.50910869080695
30
0
10
143.44912310812441
20
255.63197633032996
30
0
10
143.44912310812441
20
250.93548684094571
30
0
10
146.32625425808112
20
248.05835448046872
30
0
0
SPLINE
5
272
100
AcDbEntity
8
0
100
AcDbSpline
70
4
71
3
72
8
73
4
74
0
42
0.000000001
43
0.0000000001
44
0.0000000001
40
0
40
0
40
0
40
0
40
1
40
1
40
1
40
1
41
1
41
1
41
1
41
1
10
146.32625425808112
20
248.05835448046872
30
0
10
149.20338581154459
20
245.1812221199917
30
0
10
153.89987852898292
20
245.1812221199917
30
0
10
156.77701088945994
20
248.05835448046872
30
0
0
SPLINE
5
273
100
AcDbEntity
8
0
100
AcDbSpline
70
4
71
3
72
8
73
4
74
0
42
0.000000001
43
0.0000000001
44
0.0000000001
40
0
40
0
40
0
40
0
40
1
40
1
40
1
40
1
41
1
41
1
41
1
41
1
10
156.77701088945994
20
248.05835448046872
30
0
10
159.65414163590989
20
250.93548684094571
30
0
10
159.65414163590989
20
255.63197633032996
30
0
10
156.77701088945994
20
258.50910869080695
30
0
0
SPLINE
5
274
100
AcDbEntity
8
0
100
AcDbSpline
70
4
71
3
72
8
73
4
74
0
42
0.000000001
43
0.0000000001
44
0.0000000001
40
0
40
0
40
0
40
0
40
0.33481871226050131
40
0.33481871226050131
40
0.33481871226050131
40
0.33481871226050131
41
1
41
1
41
1
41
1
10
156.77701088945994
20
258.50910869080695
30
0
10
156.62118036274398
20
258.66494029833581
30
0
10
156.4606065412232
20
258.81128495437861
30
0
10
156.29528948547909
20
258.94973110570123
30
0
0
ARC
5
275
100
AcDbEntity
8
0
100
AcDbCircle
10
157.88677031293284
20
260.20601891158157
30
0
40
2.0275774400392734
210
0
220
0
230
1
100
AcDbArc
50
150.11352667539416
51
218.28695990177798
0
LINE
5
276
100
AcDbEntity
8
0
100
AcDbLine
10
156.12883145449055
20
261.21632641196686
30
0
11
157.36936043530218
21
263.3748515140382
31
0
0
SPLINE
5
277
100
AcDbEntity
8
0
100
AcDbSpline
70
4
71
3
72
8
73
4
74
0
42
0.000000001
43
0.0000000001
44
0.0000000001
40
0
40
0
40
0
40
0
40
1
40
1
40
1
40
1
41
1
41
1
41
1
41
1
10
157.36936043530218
20
263.3748515140382
30
0
10
158.2155754556714
20
262.86712379303833
30
0
10
159.06179047604061
20
262.27476940511497
30
0
10
159.78107356615988
20
261.51318105166922
30
0
0
SPLINE
5
278
100
AcDbEntity
8
0
100
AcDbSpline
70
4
71
3
72
8
73
4
74
0
42
0.000000001
43
0.0000000001
44
0.0000000001
40
0
40
0
40
0
40
0
40
1
40
1
40
1
40
1
41
1
41
1
41
1
41
1
10
159.78107356615988
20
261.51318105166922
30
0
10
164.30832424794062
20
256.98593198391558
30
0
10
164.30832424794062
20
249.58155055568486
30
0
10
159.78107356615988
20
245.0542950318229
30
0
0
SPLINE
5
279
100
AcDbEntity
8
0
100
AcDbSpline
70
4
71
3
72
8
73
4
74
0
42
0.000000001
43
0.0000000001
44
0.0000000001
40
0
40
0
40
0
40
0
40
1
40
1
40
1
40
1
41
1
41
1
41
1
41
1
10
159.78107356615988
20
245.0542950318229
30
0
10
155.2538228843791
20
240.52704596406926
30
0
10
147.84944145614841
20
240.52704596406926
30
0
10
143.32219077436767
20
245.0542950318229
30
0
0
SPLINE
5
280
100
AcDbEntity
8
0
100
AcDbSpline
70
4
71
3
72
8
73
4
74
0
42
0.000000001
43
0.0000000001
44
0.0000000001
40
0
40
0
40
0
40
0
40
1
40
1
40
1
40
1
41
1
41
1
41
1
41
1
10
143.32219077436767
20
245.0542950318229
30
0
10
138.79494049609369
20
249.5815440995766
30
0
10
138.79494049609369
20
256.9859255278073
30
0
10
143.32219077436767
20
261.513174595561
30
0
0
SPLINE
5
281
100
AcDbEntity
8
0
100
AcDbSpline
70
4
71
3
72
8
73
4
74
0
42
0.000000001
43
0.0000000001
44
0.0000000001
40
0
40
0
40
0
40
0
40
1
40
1
40
1
40
1
41
1
41
1
41
1
41
1
10
143.32219077436767
20
261.513174595561
30
0
10
144.04147346098017
20
262.23245607165319
30
0
10
144.88768848134939
20
262.86711733693011
30
0
10
145.7339035017186
20
263.37484505792997
30
0
0
LINE
5
282
100
AcDbEntity
8
0
100
AcDbLine
10
145.7339035017186
20
263.37484505792997
30
0
11
146.79167247893349
21
261.53432803423777
31
0
0
LINE
5
283
100
AcDbEntity
8
0
100
AcDbLine
10
144.12609568932925
20
228.97620964480774
30
0
11
148.35717079117535
21
228.97620964480774
31
0
0
LINE
5
284
100
AcDbEntity
8
0
100
AcDbLine
10
148.35717079117535
20
228.97620964480774
30
0
11
148.35717079117535
21
237.43835984849994
31
0
0
LINE
5
285
100
AcDbEntity
8
0
100
AcDbLine
10
148.35717079117535
20
237.43835984849994
30
0
11
152.58824589302148
21
237.43835984849994
31
0
0
LINE
5
286
100
AcDbEntity
8
0
100
AcDbLine
10
152.58824589302148
20
237.43835984849994
30
0
11
152.58824589302148
21
228.97620964480774
31
0
0
LINE
5
287
100
AcDbEntity
8
0
100
AcDbLine
10
152.58824589302148
20
228.97620964480774
30
0
11
161.05039609671368
21
228.97620964480774
31
0
0
SPLINE
5
288
100
AcDbEntity
8
0
100
AcDbSpline
70
4
71
3
72
8
73
4
74
0
42
0.000000001
43
0.0000000001
44
0.0000000001
40
0
40
0
40
0
40
0
40
1
40
1
40
1
40
1
41
1
41
1
41
1
41
1
10
163.16593364763673
20
226.86067209388469
30
0
10
163.16593364763673
20
228.04537441362325
30
0
10
162.23509680242518
20
228.97620964480774
30
0
10
161.05039609671368
20
228.97620964480774
30
0
0
LINE
5
289
100
AcDbEntity
8
0
100
AcDbLine
10
163.16593364763673
20
226.86067209388469
30
0
11
163.16593364763673
21
224.74513454296164
31
0
0
LINE
5
290
100
AcDbEntity
8
0
100
AcDbLine
10
163.16593364763673
20
224.74513454296164
30
0
11
142.01055813840617
21
224.74513454296161
31
0
0
SPLINE
5
291
100
AcDbEntity
8
0
100
AcDbSpline
70
4
71
3
72
8
73
4
74
0
42
0.000000001
43
0.0000000001
44
0.0000000001
40
0
40
0
40
0
40
0
40
1
40
1
40
1
40
1
41
1
41
1
41
1
41
1
10
139.89502058748315
20
226.86067209388469
30
0
10
139.89502058748315
20
225.67596977414613
30
0
10
140.82585713006463
20
224.74513454296164
30
0
10
142.0105581384062
20
224.74513454296164
30
0
0
LINE
5
292
100
AcDbEntity
8
0
100
AcDbLine
10
139.89502058748315
20
226.86067209388469
30
0
11
139.89502058748315
21
239.55389739942302
31
0
0
LINE
5
293
100
AcDbEntity
8
0
100
AcDbLine
10
139.89502058748315
20
239.55389739942302
30
0
11
142.0105581384062
21
239.55389739942297
31
0
0
SPLINE
5
294
100
AcDbEntity
8
0
100
AcDbSpline
70
4
71
3
72
8
73
4
74
0
42
0.000000001
43
0.0000000001
44
0.0000000001
40
0
40
0
40
0
40
0
40
1
40
1
40
1
40
1
41
1
41
1
41
1
41
1
10
144.12609568932925
20
237.43835984849994
30
0
10
144.12609568932925
20
238.6230621682385
30
0
10
143.19525924762448
20
239.55389739942297
30
0
10
142.0105581384062
20
239.55389739942297
30
0
0
LINE
5
295
100
AcDbEntity
8
0
100
AcDbLine
10
144.12609568932925
20
237.43835984849994
30
0
11
144.12609568932925
21
228.97620964480774
31
0
0
LINE
5
296
100
AcDbEntity
8
0
100
AcDbLine
10
139.89502058748312
20
203.5897590337311
30
0
11
139.89502058748312
21
207.82083413557723
31
0
0
LINE
5
297
100
AcDbEntity
8
0
100
AcDbLine
10
139.89502058748312
20
207.82083413557723
30
0
11
154.7037834439445
21
216.28298433926943
31
0
0
LINE
5
298
100
AcDbEntity
8
0
100
AcDbLine
10
154.7037834439445
20
216.28298433926943
30
0
11
142.01055813840617
21
216.28298433926943
31
0
0
SPLINE
5
299
100
AcDbEntity
8
0
100
AcDbSpline
70
4
71
3
72
8
73
4
74
0
42
0.000000001
43
0.0000000001
44
0.0000000001
40
0
40
0
40
0
40
0
40
1
40
1
40
1
40
1
41
1
41
1
41
1
41
1
10
139.89502058748315
20
218.39852189019246
30
0
10
139.89502058748315
20
217.21381957045392
30
0
10
140.82585713006463
20
216.28298433926943
30
0
10
142.01055813840617
20
216.28298433926943
30
0
0
LINE
5
300
100
AcDbEntity
8
0
100
AcDbLine
10
139.89502058748315
20
218.39852189019246
30
0
11
139.89502058748315
21
220.51405944111553
31
0
0
LINE
5
301
100
AcDbEntity
8
0
100
AcDbLine
10
139.89502058748315
20
220.51405944111553
30
0
11
163.16593364763673
21
220.51405944111551
31
0
0
LINE
5
302
100
AcDbEntity
8
0
100
AcDbLine
10
163.16593364763673
20
220.51405944111551
30
0
11
163.16593364763673
21
216.2829843392694
31
0
0
LINE
5
303
100
AcDbEntity
8
0
100
AcDbLine
10
163.16593364763673
20
216.2829843392694
30
0
11
148.35717079117535
21
207.82083413557717
31
0
0
LINE
5
304
100
AcDbEntity
8
0
100
AcDbLine
10
148.35717079117535
20
207.82083413557717
30
0
11
161.05039609671365
21
207.82083413557723
31
0
0
SPLINE
5
305
100
AcDbEntity
8
0
100
AcDbSpline
70
4
71
3
72
8
73
4
74
0
42
0.000000001
43
0.0000000001
44
0.0000000001
40
0
40
0
40
0
40
0
40
1
40
1
40
1
40
1
41
1
41
1
41
1
41
1
10
163.16593364763673
20
205.70529658465415
30
0
10
163.16593364763673
20
206.88999890439271
30
0
10
162.23509680242518
20
207.82083413557723
30
0
10
161.05039609671368
20
207.82083413557723
30
0
0
LINE
5
306
100
AcDbEntity
8
0
100
AcDbLine
10
163.16593364763673
20
205.70529658465415
30
0
11
163.16593364763673
21
203.5897590337311
31
0
0
LINE
5
307
100
AcDbEntity
8
0
100
AcDbLine
10
163.16593364763673
20
203.5897590337311
30
0
11
139.89502058748312
21
203.5897590337311
31
0
0
LINE
5
308
100
AcDbEntity
8
0
100
AcDbLine
10
139.89502058748312
20
171.85669576988531
30
0
11
139.89502058748312
21
193.01207127911584
31
0
0
SPLINE
5
309
100
AcDbEntity
8
0
100
AcDbSpline
70
4
71
3
72
8
73
4
74
0
42
0.000000001
43
0.0000000001
44
0.0000000001
40
0
40
0
40
0
40
0
40
1
40
1
40
1
40
1
41
1
41
1
41
1
41
1
10
139.89502058748312
20
193.01207127911582
30
0
10
139.89502058748312
20
196.52386329084268
30
0
10
142.72984082501867
20
199.358683931885
30
0
10
146.2416332402523
20
199.358683931885
30
0
0
LINE
5
310
100
AcDbEntity
8
0
100
AcDbLine
10
146.2416332402523
20
199.35868393188497
30
0
11
163.16593364763673
21
199.358683931885
31
0
0
LINE
5
311
100
AcDbEntity
8
0
100
AcDbLine
10
163.16593364763673
20
199.358683931885
30
0
11
163.16593364763673
21
197.24314638096192
31
0
0
SPLINE
5
312
100
AcDbEntity
8
0
100
AcDbSpline
70
4
71
3
72
8
73
4
74
0
42
0.000000001
43
0.0000000001
44
0.0000000001
40
0
40
0
40
0
40
0
40
1
40
1
40
1
40
1
41
1
41
1
41
1
41
1
10
163.16593364763673
20
197.24314638096192
30
0
10
163.16593364763673
20
196.05844567525043
30
0
10
162.23509680242518
20
195.12760883003889
30
0
10
161.05039609671368
20
195.12760883003889
30
0
0
LINE
5
313
100
AcDbEntity
8
0
100
AcDbLine
10
161.05039609671368
20
195.12760883003889
30
0
11
146.2416332402523
21
195.12760883003889
31
0
0
SPLINE
5
314
100
AcDbEntity
8
0
100
AcDbSpline
70
4
71
3
72
8
73
4
74
0
42
0.000000001
43
0.0000000001
44
0.0000000001
40
0
40
0
40
0
40
0
40
1
40
1
40
1
40
1
41
1
41
1
41
1
41
1
10
146.2416332402523
20
195.12760883003889
30
0
10
145.05693213103402
20
195.12760883003889
30
0
10
144.12609568932925
20
194.19677198482731
30
0
10
144.12609568932925
20
193.01207127911582
30
0
0
LINE
5
315
100
AcDbEntity
8
0
100
AcDbLine
10
144.12609568932922
20
193.01207127911582
30
0
11
144.12609568932925
21
171.85669576988528
31
0
0
LINE
5
316
100
AcDbEntity
8
0
100
AcDbLine
10
144.12609568932925
20
171.85669576988528
30
0
11
139.89502058748312
21
171.85669576988531
31
0
0
LINE
5
317
100
AcDbEntity
8
0
100
AcDbLine
10
148.35717079117535
20
176.08777087173138
30
0
11
146.2416332402523
21
176.08777087173138
31
0
0
LINE
5
318
100
AcDbEntity
8
0
100
AcDbLine
10
146.2416332402523
20
176.08777087173138
30
0
11
146.2416332402523
21
190.89653372819276
31
0
0
SPLINE
5
319
100
AcDbEntity
8
0
100
AcDbSpline
70
4
71
3
72
8
73
4
74
0
42
0.000000001
43
0.0000000001
44
0.0000000001
40
0
40
0
40
0
40
0
40
1
40
1
40
1
40
1
41
1
41
1
41
1
41
1
10
146.2416332402523
20
190.89653372819276
30
0
10
146.2416332402523
20
192.08123443390429
30
0
10
147.17247008546386
20
193.01207127911582
30
0
10
148.35717079117535
20
193.01207127911582
30
0
0
LINE
5
320
100
AcDbEntity
8
0
100
AcDbLine
10
148.35717079117535
20
193.01207127911582
30
0
11
150.4727083420984
21
193.01207127911582
31
0
0
LINE
5
321
100
AcDbEntity
8
0
100
AcDbLine
10
150.4727083420984
20
193.01207127911582
30
0
11
150.4727083420984
21
178.20330842265446
31
0
0
SPLINE
5
322
100
AcDbEntity
8
0
100
AcDbSpline
70
4
71
3
72
8
73
4
74
0
42
0.000000001
43
0.0000000001
44
0.0000000001
40
0
40
0
40
0
40
0
40
1
40
1
40
1
40
1
41
1
41
1
41
1
41
1
10
150.4727083420984
20
178.20330842265446
30
0
10
150.4727083420984
20
177.01860731343618
30
0
10
149.54187149688684
20
176.08777087173138
30
0
10
148.35717079117535
20
176.08777087173138
30
0
0
LINE
5
323
100
AcDbEntity
8
0
100
AcDbLine
10
154.7037834439445
20
180.31884597357748
30
0
11
152.58824589302145
21
180.31884597357748
31
0
0
LINE
5
324
100
AcDbEntity
8
0
100
AcDbLine
10
152.58824589302145
20
180.31884597357748
30
0
11
152.58824589302145
21
193.01207127911582
31
0
0
LINE
5
325
100
AcDbEntity
8
0
100
AcDbLine
10
152.58824589302145
20
193.01207127911582
30
0
11
156.81932099486755
21
193.01207127911582
31
0
0
LINE
5
326
100
AcDbEntity
8
0
100
AcDbLine
10
156.81932099486755
20
193.01207127911582
30
0
11
156.81932099486755
21
182.43438352450056
31
0
0
SPLINE
5
327
100
AcDbEntity
8
0
100
AcDbSpline
70
4
71
3
72
8
73
4
74
0
42
0.000000001
43
0.0000000001
44
0.0000000001
40
0
40
0
40
0
40
0
40
1
40
1
40
1
40
1
41
1
41
1
41
1
41
1
10
156.81932099486755
20
182.43438352450056
30
0
10
156.81932099486755
20
181.24968281878907
30
0
10
155.88848414965599
20
180.31884597357748
30
0
10
154.7037834439445
20
180.31884597357748
30
0
0
ENDSEC
0
SECTION
2
OBJECTS
0
DICTIONARY
5
C
100
AcDbDictionary
3
ACAD_GROUP
350
D
3
ACAD_MLINESTYLE
350
17
0
DICTIONARY
5
D
100
AcDbDictionary
0
DICTIONARY
5
1A
330
C
100
AcDbDictionary
0
DICTIONARY
5
17
100
AcDbDictionary
0
ENDSEC
0
EOF
